<?xml version="1.0" encoding="utf-8"?>
<!-- Generator: Adobe Illustrator 16.0.0, SVG Export Plug-In . SVG Version: 6.00 Build 0)  -->
<!DOCTYPE svg PUBLIC "-//W3C//DTD SVG 1.1//EN" "http://www.w3.org/Graphics/SVG/1.1/DTD/svg11.dtd">
<svg version="1.1" id="svg2" xmlns:svg="http://www.w3.org/2000/svg"
	 xmlns="http://www.w3.org/2000/svg" xmlns:xlink="http://www.w3.org/1999/xlink" x="0px" y="0px" width="744.094px" height="875px"
	 viewBox="0 0 744.094 875" enable-background="new 0 0 744.094 875" xml:space="preserve">
<g id="layer1">
	<path id="path1364" fill="#EAE9E8" stroke="#000000" stroke-width="0.25" stroke-miterlimit="10" d="M468.715,833.608
		c-0.607-0.968-2.865-1.771-5.019-1.784c-2.153-0.017-5.121-0.801-6.594-1.746c-1.846-1.184,0.102-1.413,6.252-0.738
		c13.289,1.459,16.971,2.393,16.971,4.302C480.326,835.907,470.141,835.878,468.715,833.608z M611.807,818.509
		c-0.67-1.714,0.068-4.322,1.734-6.132c5.086-5.529-0.087-9.316-5.479-4.012c-2.182,2.146-3.438,2.367-4.951,0.879
		c-2.903-2.857-9.416-2.462-12.112,0.736c-2.818,3.342-7.65,5.961-14.619,7.927c-4.371,1.232-6.009,0.762-9.593-2.765
		c-3.752-3.691-17.395-9.651-22.092-9.651c-0.879,0-1.854,1.759-2.17,3.91c-0.668,4.577-7.375,8.379-12.471,7.067
		c-1.957-0.503-4.299-2.832-5.205-5.174c-0.904-2.343-2.396-3.803-3.312-3.245c-0.918,0.559-2.829-0.62-4.252-2.617
		c-2.03-2.853-3.686-3.37-7.715-2.418c-2.819,0.667-4.576,0.623-3.899-0.098c0.678-0.721-0.849-3.204-3.388-5.521
		c-2.539-2.313-3.694-4.209-2.567-4.209c1.125,0,2.047-1.186,2.047-2.636s-1.205-2.636-2.68-2.636c-1.476,0-2.681-1.188-2.681-2.636
		c0-1.45,1.006-2.648,2.232-2.663c1.551-0.02,1.449-0.516-0.33-1.624c-2.105-1.311-2.154-2.084-0.271-4.317
		c1.894-2.244,1.783-3.224-0.623-5.592c-2.407-2.369-2.518-3.352-0.625-5.617c2.021-2.42,1.605-2.611-3.51-1.615
		c-4.756,0.928-5.801,0.583-5.778-1.899c0.067-7.646,8.016-10.716,28.555-11.036c6.387-0.1,10.404-0.666,8.932-1.259
		c-1.768-0.712-0.25-1.814,4.465-3.241c4.046-1.225,5.558-2.221,3.484-2.297c-3.492-0.129-7.949-3.161-7.949-5.407
		c0-1.222,14.675-0.493,21.859,1.085c3.533,0.775,5.193,0.3,5.979-1.716c1.914-4.905,23.3-13.621,32.625-13.297
		c4.572,0.159,9.646-0.258,11.275-0.927c2.049-0.841,3.31-0.149,4.078,2.235c1.24,3.842,7.527,6.231,9.236,3.511
		c0.604-0.961,2.039,0.103,3.188,2.362c1.15,2.26,3.672,4.191,5.603,4.291c1.932,0.102,5.924,1.158,8.87,2.353
		c8.367,3.386,15.73,4.118,22.604,2.252c4.152-1.128,7.406-1.115,9.5,0.035c3.549,1.954,15.996-0.93,20.594-4.771
		c1.474-1.231,6.443-2.632,11.043-3.112c7.804-0.812,8.734-0.459,13.931,5.315c3.719,4.132,4.975,6.771,3.778,7.947
		c-1.053,1.034-1.159,2.917-0.264,4.565c0.84,1.544,1.807,3.598,2.15,4.563c0.342,0.967,2.631,1.758,5.088,1.758
		c4.086,0,4.643,0.891,3.84,6.149c-0.146,0.968-1.56,1.758-3.139,1.758c-1.947,0-2.502,0.943-1.726,2.936
		c3.181,8.153,4.605,18.661,2.816,20.78c-1.357,1.61-1.193,2.495,0.594,3.169c1.361,0.515,2.908,2.557,3.436,4.539
		c0.908,3.422,0.337,3.568-11.342,2.916c-6.862-0.384-12.772,0.068-13.373,1.022c-0.68,1.083-1.942,1.003-3.438-0.217
		c-1.633-1.333-2.717-1.358-3.519-0.085c-0.637,1.014-4.698,1.843-9.024,1.843s-11.979,1.596-17.006,3.544
		c-7.91,3.067-10.097,3.262-16.258,1.444c-5.562-1.64-8.449-1.625-13.197,0.064c-4.642,1.648-6.992,1.681-9.938,0.13
		c-3.033-1.596-4.188-1.521-5.399,0.347c-0.847,1.31-1.154,3.409-0.685,4.669c0.469,1.26-0.643,3.871-2.473,5.803
		C613.26,821.184,612.867,821.229,611.807,818.509z M79.084,818.205c-1.097-0.711-3.681-4.565-5.741-8.566
		c-2.502-4.855-5.551-7.893-9.171-9.135c-6.061-2.078-6.915-5.597-2.431-10.008c2.443-2.404,2.598-3.567,0.837-6.34
		c-1.726-2.719-1.633-4.131,0.466-7.078c2.312-3.248,2.299-4.168-0.119-7.798c-2.484-3.73-2.461-4.392,0.252-7.061
		c1.646-1.619,2.604-4.406,2.129-6.194c-0.476-1.787-0.084-3.726,0.87-4.306s1.506-3.2,1.227-5.823
		c-0.311-2.915,1.083-6.76,3.584-9.89c2.35-2.937,3.277-5.387,2.18-5.746c-1.054-0.346-1.915-2.145-1.915-3.995
		c0-2.519-1.265-3.368-5.002-3.368c-2.751,0-5.779,0.765-6.729,1.698c-1.996,1.964-9.705,0.424-9.705-1.938
		c0-0.872-2.009-1.089-4.466-0.482c-3.829,0.945-4.466,0.504-4.466-3.091c0-2.306-1.275-5.983-2.834-8.174
		c-2.235-3.139-2.381-4.519-0.691-6.522c1.18-1.396,2.784-2.15,3.567-1.676c2.315,1.407,7.104-1.083,7.104-3.693
		c0-3.362,8.37-5.127,11.645-2.455c1.675,1.367,5.918,1.869,11.415,1.35c4.812-0.455,10.233,0.028,12.049,1.073
		s10.937,2.084,20.269,2.309c20.844,0.501,28.732,1.449,30.163,3.625c2.53,3.85,12.586,7.136,21.709,7.097
		c14.996-0.064,16.01,0.136,16.01,3.16c0,1.701,0.997,2.448,2.505,1.88c1.378-0.521,2.981-0.478,3.564,0.098
		c1.897,1.866,11.793,2.249,11.793,0.457c0-0.958,0.805-1.742,1.787-1.742c0.983,0,1.786,2.231,1.786,4.959
		c0,5.774-8.445,12.113-21.084,15.825c-4.228,1.241-8.188,3.597-8.8,5.234c-0.612,1.637-4.34,7.516-8.283,13.063l-7.169,10.087
		l2.94,6.065c2.911,6.007,2.89,6.118-2.341,11.625c-2.903,3.059-5.279,7.059-5.279,8.89c0,2.115-1.255,3.329-3.442,3.329
		c-1.894,0-5.863,2.889-8.821,6.419c-4.864,5.806-6.199,6.409-13.974,6.317c-4.728-0.056-13.292,0.737-19.033,1.764
		c-8.202,1.466-10.846,2.747-12.345,5.983C83.05,819.839,82.208,820.229,79.084,818.205z M437.391,808.58
		c-1.664-3.512-2.879-4.334-4.476-3.03c-2.698,2.203-4.989-2.284-2.444-4.788c1.037-1.02-0.019-3.204-2.777-5.755l-4.449-4.111
		l3.806-3.245c2.094-1.785,4.688-3.243,5.766-3.239c2.902,0.01,14.24,7.067,15.914,9.908c0.797,1.353,2.203,2.001,3.125,1.439
		c0.922-0.561,1.676-0.182,1.676,0.842c0,2.359-2.83,2.376-7.262,0.042c-4.127-2.172-4.277-1.325-0.906,5.086
		c2.678,5.094,1.082,11.637-1.74,7.143c-1.067-1.7-1.739-1.417-2.686,1.131C439.787,813.096,439.471,812.97,437.391,808.58z
		 M338.789,805.491c-1.228-1.935-3.847-3.528-5.819-3.545c-5.086-0.042-20.156-9.216-19.276-11.733
		c0.403-1.152,1.807-1.691,3.116-1.198c1.312,0.495,2.896,0.085,3.521-0.91c0.773-1.231,2.408-1.241,5.112-0.029
		c2.562,1.147,7.616,1.22,14.228,0.2c5.639-0.87,10.225-1.108,10.188-0.53c-0.035,0.579-1.168,3.017-2.52,5.417
		c-1.613,2.868-1.9,5.385-0.836,7.341C350.282,807.449,343.017,812.148,338.789,805.491z M46.102,802.504
		c-4.331-0.661-4.576-1.23-4.074-9.482c0.293-4.828,0.919-9.394,1.391-10.144c1.211-1.928-4.946-6.763-7.532-5.915
		c-2.899,0.95-2.725-5.009,0.272-9.303c4.266-6.111,8.337-27.96,6.43-34.503c-2.275-7.804-2.244-7.954,1.869-9.012
		c2.05-0.527,3.576-0.055,3.581,1.111c0.004,1.118,2.817,2.174,6.252,2.348c3.434,0.173,6.244-0.421,6.244-1.317
		c0-0.898,1.922-1.633,4.271-1.633c5.833,0,7.943,7.761,3.441,12.653c-1.864,2.026-2.96,5.503-2.65,8.406
		c0.291,2.724-0.252,5.426-1.207,6.006s-1.302,2.683-0.772,4.671c0.709,2.667-0.052,3.877-2.895,4.608l-3.854,0.992l3.459,5.767
		c3.119,5.202,3.196,6.138,0.784,9.524c-2.048,2.877-2.191,4.328-0.613,6.199c1.585,1.879,1.369,3.48-0.936,6.939
		c-1.646,2.474-2.535,5.677-1.972,7.12c0.845,2.166-4.212,6.911-6.318,5.928C50.963,803.325,48.636,802.891,46.102,802.504z
		 M457.975,791.399c-0.619-0.985-4.887-3.662-9.482-5.95c-6.186-3.077-10.75-4.038-17.551-3.698
		c-8.104,0.406-9.416-0.021-11.076-3.604c-1.629-3.52-1.354-4.166,2.047-4.815c3.605-0.688,3.632-0.771,0.296-0.989
		c-6.224-0.409-12.128-16.055-6.06-16.055c0.91,0,1.654-1.09,1.654-2.421s1.197-3.398,2.66-4.593
		c1.463-1.195,2.219-2.872,1.682-3.729c-0.838-1.332,2.787-2.325,6.652-1.822c0.643,0.083,2.147-1.009,3.344-2.428
		c1.197-1.419,4.49-2.58,7.318-2.58c2.825,0,5.139-0.791,5.139-1.758c0-0.966,1.959-1.757,4.35-1.757
		c2.394,0,6.549-0.822,9.238-1.828c3.619-1.354,6.545-1.202,11.281,0.584c3.516,1.326,8.957,2.244,12.09,2.039
		c3.637-0.238,6.061,0.562,6.705,2.211c1.69,4.339-0.558,5.607-6.621,3.74c-6.316-1.947-7.223-1.993-13.82-0.703
		c-2.455,0.479-6.071,1.174-8.037,1.541c-1.965,0.367-3.682,1.775-3.813,3.132c-0.131,1.354-0.334,3.255-0.447,4.222
		c-0.113,0.966-2.172,1.868-4.574,2.005c-3.172,0.181-4.543-0.78-5.016-3.516c-0.605-3.507-0.814-3.432-3.086,1.119
		c-1.865,3.731-1.945,5.364-0.342,6.94c1.151,1.134,2.094,3.484,2.094,5.225s1.207,3.163,2.68,3.163c1.476,0,2.681,0.838,2.681,1.86
		c0,1.023-0.804,1.372-1.785,0.775c-3.125-1.899-5.765,0.917-3.441,3.671c1.672,1.982,1.422,2.494-1.254,2.553
		c-2.488,0.056-1.943,0.843,2.127,3.075c9.223,5.062,12.719,8.105,14.043,12.229C460.953,793.304,459.971,794.575,457.975,791.399z
		 M354.801,788.615c-1.318-1.296,1.851-9.902,4.164-11.31c0.97-0.59,0.128-5.517-2.006-11.732
		c-2.816-8.204-4.654-10.958-7.841-11.744c-2.48-0.612-4.613-2.808-5.284-5.437c-0.723-2.828-2.379-4.408-4.622-4.408
		c-1.925,0-4.759-1.894-6.3-4.205c-1.945-2.923-5.155-4.554-10.521-5.346c-6.658-0.981-9.595-3.033-21.355-14.923
		c-7.499-7.581-13.64-14.862-13.646-16.183s-0.802-5.203-1.77-8.631c-1.405-4.978-3.433-7.031-10.064-10.201l-8.305-3.969
		l-6.791,5.368c-7.447,5.888-9.014,6.482-8.34,3.172c0.246-1.208-1.066-2.201-2.915-2.206c-1.85-0.005-4.561-1.784-6.023-3.954
		c-1.953-2.895-2.074-3.944-0.453-3.944c1.61,0,1.474-1.104-0.505-4.075c-2.49-3.737-2.43-4.25,0.729-6.189
		c2.714-1.667,3.056-2.827,1.615-5.476c-2.689-4.944-2.476-5.203,5.318-6.43c6.45-1.015,8.003-2.363,7.357-6.387
		c-0.455-2.834,3.276-1.1,6.614,3.076c4.142,5.179,5.657,5.526,5.735,1.316c0.077-4.163,4.704-10.112,5.663-7.283
		c1.098,3.24,8.571,3.836,8.571,0.684c0-1.444,0.804-2.625,1.785-2.625c0.982,0,1.786-1.271,1.786-2.824
		c0-1.916,0.959-2.462,2.983-1.697c1.641,0.619,3.555,0.217,4.254-0.896c2.137-3.401,13.021-3.79,15.438-0.551
		c1.174,1.571,4.706,3.377,7.853,4.01c4.953,0.996,5.805,1.979,6.364,7.348c0.586,5.621,0.104,6.396-5.173,8.317
		c-9.774,3.56-10.626,4.512-8.636,9.663c1.204,3.114,1.192,4.986-0.035,5.731c-1.08,0.657-1.297,3.366-0.529,6.652
		c0.71,3.049,1.209,6.928,1.107,8.619c-0.101,1.69,0.57,3.075,1.492,3.075c0.921,0,1.675-0.798,1.675-1.773
		c0-0.975,2.83,0.013,6.289,2.196c4.854,3.063,6.917,6.062,9.04,13.133c3.733,12.436,13.668,20.575,23.007,18.852
		c6.342-1.17,8.026,0.36,4.363,3.965c-1.421,1.397,1.152,3.666,9.379,8.262c16.438,9.185,24.401,16.101,21.668,18.814
		c-1.719,1.706-2.42,1.531-3.344-0.834c-0.644-1.646-3.613-4.238-6.603-5.76c-5.205-2.646-5.573-2.589-8.766,1.384
		c-6.936,8.631-7.179,9.975-2.368,13.075c5.396,3.478,5.873,8.857,0.924,10.402c-1.965,0.612-3.571,2.274-3.571,3.693
		c0,3.003-5.171,11.242-7.055,11.242C356.454,789.675,355.393,789.198,354.801,788.615z M263.205,771.383
		c-2.982-2.146-3.207-3.253-1.541-7.595c1.438-3.752,1.388-6.957-0.196-12.235c-2.129-7.094-2.1-7.174,3.538-9.817
		c5.375-2.521,5.813-2.462,8.072,1.095c1.312,2.069,2.659,6.062,2.992,8.874c0.763,6.435-2.594,19.072-4.72,17.779
		c-0.876-0.533-2.282,0.24-3.124,1.722C266.891,773.552,266.251,773.574,263.205,771.383z M408.912,759.423
		c-0.022-1.657-1.717-3.896-3.766-4.975s-3.283-2.396-2.742-2.93c0.541-0.532,0.234-2.341-0.678-4.021
		c-0.914-1.679-1.154-3.55-0.537-4.158c1.838-1.807,1.959-17.547,0.162-20.995c-2.121-4.073,1.289-8.438,5.418-6.935
		c5.936,2.163,9.031,7.438,8.008,13.645c-0.707,4.275,0.115,7.66,2.957,12.184c2.162,3.442,3.117,6.261,2.121,6.261
		s-2.281,1.385-2.854,3.076c-0.574,1.69-2.621,5.052-4.548,7.468C409.674,761.529,408.944,761.814,408.912,759.423z M493.91,745.926
		c-3.473-1.319-5.635-9.924-2.909-11.58c0.821-0.5,1.077-2.475,0.567-4.39c-1.166-4.387,7.373-8.333,11.226-5.188
		c1.312,1.07,3.221,1.438,4.241,0.817c1.021-0.621,2.713,0.722,3.763,2.982c1.047,2.262,4.467,5.271,7.6,6.688l5.695,2.577
		l-9.552,0.537c-7.325,0.412-10.444,1.504-13.396,4.688C498.42,746.001,496.307,746.837,493.91,745.926z M418.795,739.438
		c-1.527-1.504-2.777-4.646-2.777-6.98c0-4.647,5.117-11.672,7.463-10.245c0.809,0.491,1.469,0.148,1.469-0.762
		c0-2.979,13.765-2.048,16.545,1.12c5.982,6.813,4.011,14.385-3.746,14.385c-1.887,0-4.28,1.01-5.321,2.244
		C429.668,742.468,422.012,742.604,418.795,739.438z M469.545,732.012c-4.568-2.177-6.564-2.235-12.328-0.364
		c-7.373,2.394-11.254,1.406-9.74-2.477c0.516-1.32-0.691-3.892-2.68-5.715c-3.293-3.019-3.658-5.54-2.188-15.057
		c0.111-0.727,1.408-1.318,2.883-1.318c1.474,0,2.681-1.188,2.681-2.636c0-1.45-0.783-2.637-1.74-2.637
		c-0.959,0-3-2.396-4.541-5.324c-2.42-4.604-2.455-5.663-0.258-7.824c2.834-2.789,4.981-1.785,3.625,1.693
		c-1.002,2.564,6.547,4.189,23.457,5.05c8.151,0.415,11.856-0.229,15.479-2.689c7.854-5.335,14.834-5.858,22.074-1.656
		c3.527,2.048,7.574,3.724,8.992,3.724c3.807,0,3.131,2.962-0.914,4.003c-1.957,0.503-4.053,3.097-4.769,5.897
		c-0.7,2.75-2.346,6.055-3.653,7.341c-2.662,2.618-3.263,6.349-0.779,4.839c2.312-1.406,4.211,4.54,2.109,6.606
		c-1.17,1.149-2.634,1.036-4.31-0.331c-3.44-2.811-11.944,0.416-13.162,4.995C488.215,734.04,477.938,736.01,469.545,732.012z
		 M266.371,729.487c-0.104-1.208-0.681-4.719-1.281-7.8c-0.894-4.58-0.382-5.976,2.798-7.649c3.974-2.093,6.913-0.138,6.98,4.643
		C274.975,726.201,266.965,736.387,266.371,729.487z M416.018,721.014c0-2.643-3.949-6.227-8.389-7.611
		c-2.763-0.862-4.691-0.006-7.279,3.23c-3.301,4.128-3.691,4.215-6.221,1.381c-3.636-4.072-5.668-10.933-3.24-10.933
		c1.047,0,1.906-1.232,1.906-2.739s0.809-2.248,1.799-1.646c0.988,0.602,2.281-0.144,2.871-1.653
		c0.588-1.511,2.19-2.747,3.559-2.747c2.992,0,3.287-2.822,0.473-4.533c-1.368-0.832-1.049-1.758,0.998-2.884
		c2.752-1.515,2.685-1.939-0.77-4.886c-3.228-2.753-3.455-3.744-1.551-6.742c1.795-2.83,1.772-4.057-0.113-6.294
		c-1.566-1.856-1.68-2.778-0.34-2.778c1.104,0,2.006-0.791,2.006-1.758c0-3.24-3.896-1.799-4.852,1.795
		c-0.732,2.758-1.484,3.11-3.361,1.578c-2.226-1.817-10.191-2.804-31.087-3.85c-7.04-0.353-8.106,0.071-8.591,3.411
		c-0.336,2.322,2.641,8.307,7.614,15.308l8.167,11.494l-5.795-0.37c-6.032-0.386-16.991-9.913-13.703-11.913
		c0.92-0.56,0.047-2.465-1.94-4.235c-1.988-1.77-3.615-4.646-3.615-6.393c0-1.745-1.565-4.608-3.479-6.362
		c-2.215-2.028-2.944-4.039-2.01-5.528c1.027-1.636,1.836-1.755,2.691-0.394c2.015,3.207,7.834,2.197,9.049-1.57
		c0.624-1.933,1.979-3.515,3.009-3.515s1.451-1.592,0.935-3.537c-1.019-3.829,2.919-6.881,7.857-6.093
		c1.577,0.252,6.013,2.505,9.854,5.006c8.097,5.271,18.539,7.941,18.539,4.74c0-1.146,0.826-1.579,1.834-0.966
		c1.008,0.612,1.717,2.044,1.574,3.179c-0.529,4.217,0.221,6.458,2.159,6.458c1.097,0,1.597-1.384,1.109-3.075
		c-0.484-1.69-1.182-4.157-1.547-5.479c-0.365-1.322,0.541-2.69,2.016-3.044c11.539-2.762,12.238-2.724,15.902,0.882
		c2.061,2.026,3.746,4.848,3.746,6.267s1.809,3.593,4.02,4.832s4.021,3.748,4.021,5.576c0,1.827,1.606,4.2,3.572,5.271
		c1.965,1.072,4.235,2.74,5.049,3.706c0.957,1.14,1.795,0.984,2.383-0.438c0.498-1.209,1.471-2.197,2.162-2.197
		c2.004,0,2.031,7.532,0.035,9.896c-1.912,2.269,1.897,11.604,5.674,13.898c1.211,0.736,0.492,2.165-1.928,3.832
		c-2.437,1.679-3.533,3.876-2.979,5.965c1.086,4.08-0.74,5.281-8.188,5.387c-3.18,0.046-7.562,1.179-9.737,2.519
		C417.129,723.39,416.018,723.495,416.018,721.014z M177.048,715.035c-2.115-3.459-11.358-5.648-21.695-5.139
		c-9.964,0.493-20.858-3.21-18.852-6.404c0.581-0.926-0.132-1.684-1.584-1.684c-2.292,0-2.321-0.873-0.221-6.59
		c1.332-3.625,3.13-12.521,3.996-19.771c1.406-11.771,0.908-15.915,1.624-19.433c0.859-4.229,0.268-5.396-3.625-7.142
		c-5.193-2.328-10.748-9.572-9.212-12.018c0.548-0.872-0.711-2.765-2.799-4.202c-2.088-1.439-3.26-3.471-2.604-4.515
		c0.709-1.129-0.327-1.897-2.558-1.897c-2.062,0-6.96-1.611-10.885-3.581s-7.944-3.089-8.933-2.488
		c-1.122,0.683-1.378-0.549-0.683-3.278c0.812-3.177,0.226-4.859-2.146-6.166c-4.294-2.362-2.114-4.271,5.149-4.506
		c3.218-0.104,6.845-1.375,8.061-2.825c1.925-2.296,2.643-2.093,5.561,1.57c1.997,2.508,4.218,3.679,5.5,2.9
		c1.184-0.72,4.771-1.309,7.975-1.309h5.822l-1.235-7.293c-0.681-4.011-1.868-8.769-2.641-10.571
		c-1.246-2.911-0.971-3.053,2.439-1.257c2.114,1.112,3.844,2.687,3.844,3.494c0,1.898,13.174,3.988,16.715,2.651
		c1.49-0.562,2.27-2.149,1.732-3.526c-0.663-1.698,1.615-3.632,7.086-6.013c7.977-3.471,11.979-9.366,11.979-17.643
		c0-1.82,2.123-3.81,5.19-4.86c4.513-1.548,5.312-1.32,6.127,1.743c0.701,2.638,1.866,3.231,4.634,2.368
		c2.489-0.777,3.698-0.383,3.698,1.209c0,3.132,5.854,7.962,8.571,7.07c1.181-0.388,2.248,0.152,2.371,1.199
		s0.343,2.893,0.488,4.101c0.147,1.208,1.744,2.072,3.551,1.92c1.806-0.151,5.604,1.759,8.441,4.244
		c2.837,2.486,7.178,4.733,9.646,4.992c2.468,0.259,8.85,2.5,14.181,4.981c5.331,2.479,10.546,4.511,11.59,4.511
		c2.476,0,2.406,2.81-0.186,7.574c-1.146,2.104-3.008,7.392-4.137,11.746c-1.214,4.684-3.1,7.95-4.615,7.998
		c-1.41,0.044-2.395,0.938-2.188,1.986s-1.2,3.312-3.126,5.025c-1.926,1.715-3.501,4.097-3.501,5.293s-1.257,2.65-2.793,3.229
		c-1.536,0.58-2.271,1.887-1.632,2.901s0.086,3.183-1.228,4.814c-2.033,2.528-1.616,2.483,2.823-0.311
		c5.043-3.172,5.287-3.174,7.6-0.062c1.513,2.034,1.765,3.825,0.687,4.887c-1.078,1.061-0.749,3.486,0.897,6.617
		c2.407,4.58,2.326,5.086-1.101,6.891c-2.941,1.549-3.269,2.456-1.597,4.438c1.156,1.369,1.654,3.637,1.107,5.037
		c-1.433,3.673,5.437,11.642,8.905,10.332c2.388-0.901,2.505-0.483,0.765,2.716c-1.131,2.079-2.805,3.78-3.719,3.78
		s-4.199,2.439-7.299,5.422c-3.319,3.19-6.834,5.061-8.547,4.544c-1.6-0.482-5.522-1.735-8.715-2.785
		c-15.226-5.004-15.709-5.026-22.931-1.062c-4.595,2.523-7.195,5.297-7.589,8.086c-0.329,2.336-1.232,4.898-2.008,5.695
		C186.904,717.062,178.439,717.311,177.048,715.035z M381.61,709.438c-3.674-2.57-6.678-6.046-6.678-7.721
		c0-1.676-1.031-3.436-2.291-3.911c-3.507-1.322-17.36-22.012-17.36-25.926c0-4.276,1.558-4.405,4.659-0.385
		c2.086,2.703,2.38,2.731,2.43,0.242c0.042-2.075,1.372-2.652,4.971-2.155c2.7,0.373,8.84,1.047,13.641,1.499
		s9.814,1.708,11.143,2.791c1.326,1.084,3.63,1.512,5.115,0.95c1.656-0.625,2.701-0.021,2.701,1.561c0,1.42-0.803,2.581-1.785,2.581
		c-0.981,0-1.787,1.582-1.787,3.515c0,1.935,0.779,3.516,1.73,3.516s1.264,1.196,0.692,2.658c-0.57,1.462-0.045,3.835,1.169,5.271
		c1.831,2.172,1.571,2.613-1.531,2.613c-2.75,0-3.435,0.771-2.594,2.925c0.713,1.827,0.43,2.492-0.755,1.772
		c-2.551-1.552-7.879,6.717-6.541,10.147C389.967,715.041,389.381,714.876,381.61,709.438z M456.713,692.748
		c-1.261-0.786-4.146-1.441-6.414-1.456c-2.365-0.016-3.642-0.798-2.99-1.833c0.625-0.993-0.734-3.34-3.021-5.214
		c-2.375-1.946-3.153-3.433-1.817-3.465c1.287-0.032,1.875-0.796,1.309-1.698c-0.565-0.901-3.397-1.572-6.295-1.491
		c-6.133,0.172-11.324-3.404-9.973-6.87c0.555-1.419-0.879-3.223-3.492-4.394c-2.436-1.092-4.43-3.401-4.43-5.131
		c0-1.73-1.406-4.021-3.127-5.093c-1.72-1.07-2.322-2.309-1.341-2.75c8.056-3.625,10.632-5.73,11.675-9.536
		c1.278-4.669,12.442-22.835,12.442-20.246c0,0.841,1.851-0.182,4.109-2.271c3.313-3.062,5.131-3.512,9.379-2.319
		c2.896,0.812,7.234,1.18,9.639,0.814c2.492-0.379,4.972,0.391,5.767,1.786c1.184,2.083,2.668,2.05,9.918-0.226
		c4.688-1.472,9.797-3.741,11.348-5.045c4.729-3.973,6.26-2.846,14.096,10.371c6.283,10.599,7.652,14.584,8.144,23.701
		c0.322,6.028,1.102,12.553,1.729,14.498c1.261,3.904,7.818,4.814,11.142,1.547c2.215-2.177,7.623-0.893,7.623,1.811
		c0,2.857-6.015,7.913-6.769,5.688c-0.371-1.096-1.285-1.993-2.028-1.993c-1.648,0-5.494,12.14-5.494,17.339
		c0,2.578-1.115,3.75-3.572,3.75c-1.965,0-3.572-0.729-3.572-1.621c0-2.577-12.242-5.854-17.252-4.617
		c-2.506,0.619-6.629,2.461-9.16,4.093C479.375,694.039,460.801,695.3,456.713,692.748z M582.91,681.338
		c-1.055-0.387-1.586-2.933-1.178-5.658c0.607-4.07-0.309-5.606-5.129-8.608l-5.865-3.654l6.658-3.124
		c9.102-4.271,8.031-8.283-2.408-9.03c-4.414-0.314-9.209-0.977-10.653-1.468c-2.312-0.784-2.312-1.087-0.011-2.486
		c2.226-1.353,2.104-1.966-0.801-4.056c-1.883-1.354-4.693-2.225-6.244-1.933c-10.721,2.013-12.645,2.83-12.645,5.369
		c0,5.448-15.822,17.5-25.392,19.344c-3.575,0.688-2.897-1.536,3.953-12.976c4.244-7.084,7.146-9.45,7.146-5.825
		c0,0.91,1.717,1.33,3.813,0.934c4.439-0.841,6.76-2.59,3.438-2.59c-1.252,0-1.836-1.129-1.297-2.508
		c0.536-1.38-0.181-3.453-1.597-4.608s-2.573-3.981-2.573-6.279c0-2.667-1.039-4.178-2.873-4.178c-2.107,0-2.599-1.079-1.841-4.048
		c0.679-2.658-0.03-4.922-2.065-6.591c-9.539-7.825-29.582-10.479-34.453-4.562c-4.072,4.946-20.779,10.257-22.047,7.007
		c-0.525-1.348-3.068-2.21-5.889-1.996c-8.142,0.616-19.634-2.151-22.681-5.464c-3.766-4.095-0.633-14.631,3.849-12.938
		c2.286,0.863,2.582,0.254,1.534-3.183c-0.711-2.338-1.442-5.099-1.627-6.136c-0.407-2.314,12.365-16.565,14.849-16.565
		c0.983,0,1.914-0.989,2.062-2.197c0.15-1.208,0.396-3.383,0.549-4.832c0.15-1.45-1.028-4.613-2.621-7.029
		c-2.891-4.382-2.879-10.544,0.019-10.544c0.84,0,2.803-1.255,4.361-2.788c4.655-4.58,33.741-3.383,36.977,1.521
		c0.631,0.957,4.783,1.832,9.229,1.942c4.444,0.11,8.678,0.788,9.405,1.504c0.729,0.718,2.353,0.466,3.607-0.561
		c1.615-1.318,3.383-1.285,6.037,0.112c2.063,1.087,5.235,1.514,7.049,0.948c2.049-0.641,3.688-0.014,4.342,1.659
		c1.873,4.804,4.734,2.841,4.734-3.247c0-7.642,3.502-10.355,13.799-10.697c4.567-0.151,8.596-1.133,8.949-2.18
		c0.354-1.046,2.123-1.521,3.93-1.058s3.76,0.092,4.338-0.829c2.031-3.232,10.182-0.001,12.863,5.102
		c1.461,2.779,1.973,5.055,1.135,5.055s-1.17,2.372-0.736,5.271c0.74,4.971,2.697,6.178,8.785,5.422
		c2.5-0.311,8.676,8.235,7.084,9.803c-0.59,0.58-0.248,2.569,0.76,4.423c1.246,2.29,2.943,3.021,5.304,2.284
		c2.055-0.643,4.612,0.043,6.276,1.68c2.511,2.469,3.217,2.481,6.646,0.12c5.465-3.766,7.213-3.334,10.812,2.66
		c1.752,2.917,3.92,4.855,4.818,4.31c2.053-1.248,18.229,4.32,23.143,7.966c3.539,2.625,3.558,2.861,0.496,6.195
		c-3.201,3.485-4.131,8.988-2.074,12.252c1.132,1.793,0.771,6.367-0.829,10.464c-0.556,1.422-2.681,1.944-5.644,1.388
		c-3.719-0.699-5.895,0.333-9.988,4.742c-2.879,3.102-4.836,6.271-4.352,7.043c0.486,0.772-2.74,2.403-7.168,3.623
		c-4.43,1.221-8.482,2.9-9.006,3.734c-0.524,0.834-2.138,1.516-3.584,1.516c-1.447,0-5.619,1.312-9.273,2.917
		c-3.651,1.604-7.18,2.987-7.838,3.075c-2.895,0.385-10.414,8.314-10.414,10.984c0,1.617,0.492,2.457,1.092,1.865
		c0.601-0.591,3.105,1.278,5.564,4.154c3.312,3.874,5.461,4.951,8.287,4.156c2.098-0.59,5.221-1.458,6.938-1.93
		c1.947-0.534,3.127,0.108,3.127,1.709c0,3.33-4.51,4.977-9.95,3.633c-3.019-0.745-4.638-0.219-5.408,1.759
		c-0.605,1.553-2.326,2.822-3.824,2.822c-1.5,0-5.229,1.482-8.295,3.295C587.334,680.557,583.965,681.724,582.91,681.338z
		 M330.089,658.315c-4.592-8.098-3.451-11.771,3.757-12.102c6.443-0.297,18.302-2.787,23.488-4.933
		c5.479-2.268,5.375,2.54-0.121,5.627c-3.914,2.198-5.158,3.959-4.423,6.258c0.716,2.231-0.065,3.479-2.585,4.127
		c-2.177,0.561-3.228,1.906-2.647,3.393c1.137,2.911-0.214,3.108-4.789,0.699c-2.237-1.178-3.714-1.178-4.454,0
		C336.334,664.538,332.889,663.252,330.089,658.315z M514.006,658.419c-0.144-1.748-0.429-7.409-0.631-12.581
		c-0.203-5.171-1.093-9.916-1.974-10.544c-1.662-1.185-2.928-3.1-10.336-15.638l-4.41-7.466l4.373-1.08
		c4.572-1.13,15.023,2.175,15.023,4.748c0,0.818,1.205,1.033,2.68,0.478c1.473-0.557,2.68-0.136,2.68,0.934
		c0,1.07,1.205,1.945,2.681,1.945c3.16,0,3.467,2.037,0.713,4.745c-1.428,1.406-0.988,2.894,1.611,5.45
		c1.965,1.934,4.108,5.177,4.764,7.205c0.654,2.027,1.914,3.688,2.801,3.688c0.885,0,1.148,1.182,0.586,2.624
		c-0.68,1.742-2.41,2.281-5.15,1.604c-3.541-0.875-4.627,0.094-7.649,6.813C517.807,660.151,514.403,663.256,514.006,658.419z
		 M377.137,654.163c-10.931-5.322-15.06-11.085-13.589-18.966c0.646-3.476,1.871-6.582,2.719-6.906
		c0.849-0.324,1.088-1.312,0.532-2.196c-0.557-0.884,0.156-1.606,1.584-1.606c1.427,0,3.099-1.294,3.715-2.875
		c1.021-2.619,1.398-2.629,4.227-0.11c3.854,3.431,18.256,2.138,18.256-1.64c0-1.395,1.88-2.404,4.468-2.404
		c2.457,0,4.465-0.717,4.465-1.593s1.514-1.203,3.365-0.729c2.067,0.532,4.319-0.479,5.848-2.625
		c1.723-2.42,4.525-3.489,9.141-3.489c3.66,0,6.656,0.712,6.656,1.582c0,0.869,1.887,1.58,4.193,1.58
		c2.305,0,6.084,1.614,8.396,3.589c4.193,3.577,4.195,3.589,0.422,4.56c-3.946,1.016-16.584,19.368-16.584,24.085
		c0,3.675-2.196,4.758-13.053,6.435c-14.363,2.218-19.848,3.575-21.691,5.371C387.733,658.631,385.631,658.3,377.137,654.163z
		 M242.552,650.396c-1.542-3.661-3.07-4.854-5.441-4.242c-4.026,1.036-6.126-1.568-2.396-2.977c1.468-0.555,2.669-2.07,2.669-3.37
		s2.277-4.508,5.059-7.131c4.871-4.591,8.873-5.771,24.494-7.229c6.997-0.653,7.235-0.5,7.629,4.895
		c0.431,5.894,4.944,10.619,8.766,9.178c3.296-1.244,2.815,0.261-1.408,4.416c-2.966,2.919-4.204,3.215-6.295,1.508
		c-1.433-1.169-2.785-1.815-3.006-1.437c-0.223,0.379-1.266,2.225-2.317,4.101c-2.746,4.893-6.203,5.463-7.333,1.21
		c-0.79-2.972-1.605-3.324-4.348-1.88c-1.857,0.978-3.376,2.846-3.376,4.15c0,1.308-2.374,2.718-5.275,3.137
		C245.501,655.37,244.368,654.709,242.552,650.396z M323.128,643.216c-7.3-1.544-10.281-3.096-11.601-6.034
		c-1.137-2.537-2.739-3.573-4.466-2.893c-1.48,0.585-4.483,1.276-6.674,1.536c-2.189,0.26-5.119,1.399-6.509,2.535
		c-1.962,1.603-3.115,1.485-5.154-0.521c-1.694-1.667-3.241-1.979-4.355-0.882c-2.828,2.781-7.688-0.223-7.688-4.752
		c0-4.517,1.181-5.084,5.273-2.537c1.427,0.889,3.437,1.086,4.466,0.439c1.03-0.646,3.881-1.3,6.338-1.451
		c2.456-0.152,7.991-1.276,12.3-2.498c5.901-1.673,8.635-1.729,11.082-0.227c4.285,2.634,5.691,0.058,3.32-6.08
		c-1.586-4.104-1.364-5.309,1.326-7.21c1.777-1.256,4.664-3.468,6.415-4.917c2.311-1.909,4.094-2.154,6.491-0.893
		c2.571,1.354,4.346,0.793,7.985-2.525c4.422-4.03,5.058-4.134,11.59-1.866c3.801,1.318,8.369,2.271,10.15,2.116
		c2.317-0.2,3.674,1.469,4.767,5.869c2.525,10.177,2.424,11.14-1.295,12.181c-1.965,0.55-3.652,1.987-3.751,3.196
		c-0.1,1.208-0.299,4.146-0.446,6.527c-0.369,5.97-5.811,8.583-25.277,12.145C334.962,644.927,328.531,644.359,323.128,643.216z
		 M279.25,626.146c-2.887-1.878-6.252-3.044-7.48-2.593c-1.228,0.452-2.232,0.136-2.232-0.705c0-1.708-7.177-1.353-14.934,0.738
		c-5.042,1.359-5.091,1.3-3.801-4.573c0.719-3.271,2.776-8.807,4.572-12.297l3.265-6.348l-11.075-4.285
		c-9.524-3.686-11.074-4.91-11.074-8.749c0-2.454-0.986-5.636-2.19-7.07c-1.643-1.955-1.68-3.107-0.148-4.614
		c1.531-1.508,1.272-3.688-1.035-8.724c-2.328-5.079-2.646-7.829-1.309-11.293c0.974-2.518,1.354-6.142,0.845-8.054
		c-0.688-2.594,0.171-3.746,3.385-4.54c5.477-1.354,9.781-9.558,5.802-11.062c-3.39-1.278-3.48-4.146-0.131-4.146
		c3.188,0,5.268-8.857,3.714-15.816c-1.137-5.091-0.958-5.271,5.217-5.271c3.518,0,6.193,0.593,5.947,1.318
		c-0.51,1.507,1.042,2.195,4.947,2.195c1.98,0,2.419-1.151,1.624-4.271c-0.968-3.791-0.62-4.151,3.092-3.21
		c2.3,0.584,4.985,2.029,5.968,3.215c0.982,1.185,3.796,2.666,6.252,3.293c4.076,1.041,4.162,0.955,0.981-0.986
		c-4.477-2.729-12.729-12.387-12.146-14.214c0.246-0.771-0.558-1.425-1.786-1.454c-1.245-0.029-0.854-0.843,0.88-1.838
		c2.915-1.67,2.925-2.068,0.152-6.229l-2.961-4.447l6.993,1.226c8.572,1.503,11.56,3.824,7.872,6.118
		c-2.399,1.492-1.262,2.464,2.248,1.919c0.736-0.114,1.34,0.448,1.34,1.251c0,0.802,2.812,1.366,6.252,1.254
		c6.32-0.206,8.408,1.855,3.685,3.64c-1.412,0.531-2.206,1.892-1.765,3.02c0.896,2.293,9.69,3.35,9.69,1.164
		c0-1.545,13.354-8.778,16.206-8.778c0.994,0,3.502,1.556,5.575,3.454c2.072,1.899,4.485,3.019,5.362,2.485
		c5.544-3.371,11.648,12.888,7.679,20.442c-2.268,4.312-2.201,5.12,0.623,7.636c1.737,1.547,4.076,6.586,5.197,11.196
		c4.425,18.203,4.451,19.378,0.56,23.206c-2.029,1.996-5.019,3.631-6.644,3.631s-8.124,2.844-14.441,6.318
		c-10.565,5.812-11.394,6.693-10.329,10.983c0.638,2.563,5.327,8.871,10.423,14.014l9.265,9.352l-6.794,5.664
		c-6.218,5.185-6.636,6.079-4.913,10.534c2.511,6.496,2.424,6.761-1.449,4.38c-2.552-1.566-5.162-1.525-11.164,0.177
		c-4.31,1.222-9.844,2.346-12.3,2.497c-2.457,0.151-5.32,0.812-6.364,1.468S282.137,628.023,279.25,626.146z M374.383,618.235
		c-6.464-5.956-6.174-13.654,0.549-14.558c5.018-0.674,10.717-5.021,10.717-8.178c0-1.145,2.01-2.982,4.467-4.083
		c3.322-1.489,4.465-1.491,4.465-0.01c0,1.155,1.359,0.782,3.24-0.894c2.5-2.225,3.726-2.406,5.359-0.799
		c1.166,1.146,2.119,3.112,2.119,4.369c0,3,3.604,2.814,7.934-0.407c4.562-3.395,13.687-3.275,21.254,0.274l6.084,2.854
		l-2.897,6.793c-2.771,6.488-6.033,8.609-8.127,5.278c-0.535-0.853-4.199-1.594-8.142-1.646c-5.438-0.073-7.637,0.764-9.108,3.473
		c-1.267,2.326-3.136,3.264-5.361,2.69c-1.879-0.482-3.867-0.162-4.418,0.714s-2.963,1.593-5.361,1.593
		c-2.684,0-4.358,1.013-4.358,2.636c0,1.449-1.406,2.646-3.127,2.659c-1.72,0.014-4.732,0.438-6.699,0.942
		C380.655,622.533,377.631,621.229,374.383,618.235z M324.104,596.133c-6.357-6.15-12.02-13.162-12.583-15.578
		c-0.9-3.858,0.117-5.021,8.369-9.548c12.025-6.6,28.246-10.612,28.246-6.987c0,1.361,0.603,2.348,1.34,2.188
		c2.707-0.582,11.113,2.462,10.312,3.735c-0.454,0.723,1.039,3.036,3.317,5.144c3.671,3.393,4.401,3.521,6.411,1.139
		c2.01-2.382,3.317-2.139,11.433,2.125c13.101,6.881,14.498,9.237,7.377,12.43c-2.455,1.101-4.465,3.07-4.465,4.379
		c0,3.001-7.938,7.297-10.549,5.71c-1.076-0.654-1.957-0.363-1.957,0.646c0,2.242-12.999,1.231-20.489-1.593
		c-4.159-1.567-5.704-1.503-7.146,0.301C337.406,608.12,336.24,607.877,324.104,596.133z M436.561,593.474
		c-8.328-4.749-18.055-5.3-23.789-1.349c-3.818,2.631-4.244,2.53-7.727-1.823c-2.836-3.549-4.234-4.158-6.08-2.649
		c-1.84,1.502-2.939,1.072-4.73-1.847c-2.895-4.719-27.456-17.396-25.881-13.359c1.654,4.241-1.525,4.893-5.071,1.038
		c-2.344-2.547-2.55-3.474-0.773-3.474c3.825,0-0.553-3.468-5.571-4.414c-2.384-0.448-5.227-2.013-6.317-3.474
		c-1.09-1.461-2.738-2.656-3.661-2.656c-0.925,0-1.68-2.635-1.68-5.854c0-9.332-4.556-25.472-8.072-28.604
		c-2.899-2.581-2.969-3.365-0.679-7.723c1.825-3.472,2.097-6.408,0.951-10.334c-1.826-6.261-1.323-6.685,13.646-11.489
		c5.081-1.632,10.093-3.977,11.134-5.211c2.738-3.247,20.591-8.865,24.037-7.565c1.608,0.607,2.928,2.635,2.928,4.503
		c0,4.021,9.504,7.942,14.02,5.785c4.097-1.957,44.586-1.36,46.474,0.685c1.703,1.847,7.389,23.534,7.389,28.186
		c0,1.624-2.166,4.927-4.813,7.341c-4.773,4.354-4.785,4.413-1.232,7.243c2.676,2.131,3.533,4.812,3.387,10.576
		c-0.115,4.505,1.271,10.64,3.326,14.727c3.053,6.072,3.174,7.267,0.912,8.962c-1.434,1.074-6.049,5.66-10.256,10.19
		c-6.713,7.23-7.396,8.697-5.592,12.012C445.66,598.092,444.799,598.172,436.561,593.474z M219.709,585.146
		c-2.069-2.168-3.764-5.396-3.764-7.176c0-3.021-0.214-3.043-3.267-0.324c-3.468,3.087-5.803,3.768-5.454,1.59
		c0.654-4.076-0.755-6.08-5.392-7.671c-2.85-0.978-5.606-3.38-6.127-5.339c-0.711-2.675-1.868-3.272-4.646-2.406
		c-2.818,0.881-3.698,0.392-3.698-2.057c0-4.562,6.346-8.114,10.547-5.902c2.433,1.28,5.16,0.859,10.229-1.578
		c3.943-1.896,7.185-2.581,7.546-1.594c0.35,0.952,2.56,2.451,4.913,3.331c2.955,1.105,4.278,2.975,4.278,6.037
		c0,2.727,1.01,4.438,2.617,4.438c3.624,0,6.472,5.708,4.432,8.881c-0.899,1.396-1.671,1.751-1.716,0.784s-0.91-0.357-1.922,1.354
		c-1.014,1.711-1.366,4.583-0.786,6.382C229.106,588.869,224.041,589.682,219.709,585.146z M228.97,584.065
		c-0.206-2.897,0.298-5.27,1.121-5.27c2.787,0,5.574,4.812,4.452,7.687C232.714,591.17,229.372,589.721,228.97,584.065z
		 M90.144,570.45c9.383-12.31,12.093-14.438,18.425-14.468c5.971-0.03,8.897-2.242,12.83-9.695c1.601-3.031,1.534-3.132-0.477-0.728
		c-1.282,1.533-4.206,3.771-6.497,4.973c-3.511,1.84-4.508,1.722-6.345-0.749c-1.198-1.612-3.344-2.736-4.767-2.498
		c-1.423,0.239-4.004-0.174-5.735-0.918c-1.851-0.795-4.245-0.458-5.807,0.815c-1.461,1.193-2.716,1.875-2.79,1.516
		c-1.579-7.782-1.434-8.115,4.201-9.68c3.943-1.094,6.74-3.521,8.877-7.709c1.834-3.592,2.382-6.354,1.329-6.7
		c-0.985-0.324-1.337-1.312-0.782-2.196c0.557-0.884-0.271-1.607-1.838-1.607c-2.294,0-2.476-0.684-0.936-3.515
		c2.063-3.795,11.389-4.954,13.451-1.672c0.794,1.264,1.933,1.209,3.628-0.175c2.094-1.71,2.061-2.421-0.222-4.665
		c-1.643-1.615-2.086-3.432-1.14-4.658c2.612-3.383,1.568-12.554-1.428-12.554c-5.646,0-6.769-8.279-1.786-13.182
		c3.572-3.514,3.572-3.514-0.895-3.514c-2.456,0-4.466,0.706-4.466,1.568c0,2.592-5.644,3.899-8.116,1.883
		c-1.717-1.402-2.456-1.106-2.898,1.162c-0.564,2.883-0.76,2.882-3.703-0.015c-2.952-2.902-2.93-3.396,0.434-9.883
		c2.274-4.386,2.88-7.229,1.694-7.949c-1.015-0.617-1.318-2.757-0.674-4.755c0.891-2.761,0.532-3.391-1.496-2.625
		c-1.468,0.554-3.57,0.119-4.672-0.965c-1.481-1.457-2.037-1.307-2.129,0.577c-0.076,1.542-0.69,1.161-1.556-0.967
		c-0.94-2.314-0.263-5.915,1.987-10.544l3.417-7.029l-4.367,5.086c-2.815,3.279-5.381,4.704-7.221,4.01
		c-3.82-1.441-3.638-4.668,0.273-4.841c1.719-0.077,2.159-0.525,0.979-0.997c-1.59-0.636-1.359-2.535,0.894-7.33
		c1.673-3.56,3.845-7.053,4.826-7.763c1.01-0.729,0.426-1.303-1.34-1.318c-4.664-0.04-4.308-9.964,0.41-11.438
		c1.945-0.607,3.388-1.649,3.207-2.315s0.637-3.979,1.819-7.361l2.147-6.151l11.615-0.163c13.569-0.19,14.756,1.782,5.33,8.856
		c-3.457,2.594-5.835,5.433-5.285,6.31c0.55,0.876-0.331,3.592-1.958,6.036c-3.321,4.987-1.988,5.51,4.597,1.807
		c4.819-2.71,22.425-3.572,23.933-1.171c1.832,2.917-7.59,22.247-12.212,25.055c-6.589,4.003-7.886,5.739-3.235,4.333
		c6.787-2.052,4.448,1.679-2.631,4.196c-6.408,2.279-6.497,2.422-2.42,3.905c2.327,0.847,5.586,1.116,7.243,0.599
		c4.176-1.304,14.683,6.087,16.218,11.409c0.697,2.416,2.169,7.66,3.271,11.652c1.526,5.524,3.299,7.785,7.425,9.467
		c7.751,3.158,9.284,6.972,4.932,12.261l-3.586,4.356l5.405,2.17c6.695,2.688,8.871,8.371,4.868,12.723
		c-2.706,2.941-2.688,3.258,0.251,4.367c1.743,0.658,3.452,0.36,3.799-0.661c0.902-2.665,9.562-2.188,13.499,0.743
		c5.144,3.832,2.595,14.134-4.374,17.679c-2.937,1.493-4.914,3.389-4.396,4.213c0.519,0.824-0.311,1.973-1.841,2.549
		c-4.33,1.636-1.167,4.591,4.914,4.591c4.747,0,5.167,0.361,3.167,2.731c-4.092,4.852-9.533,6.796-19.569,6.996
		c-19.77,0.396-23.432,0.817-22.326,2.578c1.237,1.97-4.107,1.542-7.61-0.608c-3.492-2.145-8.615,0.228-10.832,5.015
		c-1.76,3.8-2.543,4.104-6.275,2.431c-3.312-1.485-5.495-1.285-9.782,0.896C84.977,578.327,84.557,577.777,90.144,570.45z
		 M224.878,555.302c-2.456-1.058-5.425-2.825-6.599-3.927c-1.172-1.102-4.388-1.705-7.145-1.342l-5.013,0.662l5.132-2.381
		l5.132-2.382l-5.379-1.058l-5.379-1.059l4.266-8.289c2.347-4.561,4.267-9.342,4.267-10.627c0-1.286,0.853-2.34,1.894-2.34
		c1.103,0,1.539,2.212,1.046,5.291c-1.113,6.946,4.527,10.617,9.504,6.187c2.659-2.367,2.865-3.604,1.191-7.155
		c-1.113-2.361-2.626-4.3-3.364-4.308c-2.886-0.029-1.248-8.586,1.787-9.331c15.463-3.798,24.018,3.917,14.291,12.887
		c-3.735,3.444-3.803,3.863-0.961,5.925c2.705,1.961,2.761,2.636,0.488,5.826c-1.413,1.985-4.616,4.114-7.116,4.731
		c-3.816,0.941-4.255,1.66-2.729,4.464c1,1.837,1.219,4.872,0.486,6.744C229.542,556.721,228.682,556.94,224.878,555.302z
		 M540.889,552.438c-0.562-1.449-3.363-2.793-6.229-2.983c-2.866-0.191-11.141-0.702-18.389-1.136
		c-7.248-0.435-13.678-1.553-14.291-2.484c-3.191-4.867-34.348-5.907-39.502-1.318c-4.004,3.564-7.187,2.239-5.934-2.473
		c0.586-2.199-0.378-4.031-2.779-5.297c-3.957-2.084-3.381-7.153,0.813-7.153c3.771,0,4.91-7.786,2.552-17.458
		c-2.445-10.023-1.572-12.507,4.02-11.447c4.883,0.926,10.621-0.703,9.389-2.664c-0.846-1.348,7.347-4.478,10.168-3.886
		c0.703,0.146,0.849-0.83,0.326-2.17c-0.522-1.341-0.092-2.96,0.957-3.598s1.908-2.3,1.908-3.692c0-2.778,6.199-9.562,8.74-9.562
		c2.352,0,3.871-4.944,1.733-5.646c-1.194-0.393-1.065-2.247,0.371-5.353c1.74-3.758,3.064-4.538,6.328-3.732
		c3.078,0.76,5.269-0.255,8.605-3.986c2.461-2.755,4.5-4.044,4.53-2.865c0.031,1.178,1.265,1.687,2.736,1.13
		c1.476-0.557,2.68-0.09,2.68,1.037s0.73,1.604,1.625,1.062c2.729-1.659,7.144,0.914,6.109,3.562
		c-1.152,2.957,1.449,3.297,4.236,0.555c2.938-2.89,11.596,1.788,14.557,7.862c1.861,3.819,1.974,6.029,0.474,9.27
		c-1.562,3.373,6.561,17.271,8.28,18.533s3.125,3.481,3.125,4.93c0,1.449,1.205,2.712,2.681,2.809
		c6.25,0.406,7.303,0.796,6.327,2.346c-0.563,0.899-0.211,2.132,0.789,2.739c3.054,1.855,2.037,4.387-2.598,6.465
		c-3.297,1.478-5.045,1.462-6.908-0.06c-3.062-2.5-7.637,1.87-5.508,5.262c0.74,1.176,1.908,5.176,2.598,8.889
		c1.13,6.066,0.841,6.854-2.844,7.762c-5.619,1.389-9.303,5.834-10.041,12.118C542.149,553.023,541.512,554.048,540.889,552.438z
		 M33.528,549.277c-0.115-0.68-0.115-1.826,0-2.553c0.117-0.725-0.64-1.316-1.68-1.316s-1.375-0.822-0.744-1.828
		c0.747-1.188-0.622-1.447-3.914-0.74l-5.062,1.088l4.172-3.334c2.363-1.89,3.912-4.766,3.573-6.634
		c-0.458-2.518,1.091-3.808,6.546-5.455c6.224-1.879,6.512-2.175,2.232-2.292c-5.859-0.161-6.599-4.341-1.34-7.572
		c5.169-3.176,4.4-4.859-2.232-4.892c-3.193-0.015-6.985-0.761-8.429-1.658c-2.207-1.373-1.993-2.167,1.341-5.012
		c4.93-4.206,5.09-7.361,0.374-7.361c-3.142,0-3.311-0.438-1.356-3.515c2.494-3.929,7.739-4.688,9.12-1.318
		c0.712,1.735,0.931,1.729,1.042-0.033c0.097-1.524,1.644-1.858,4.9-1.055c3.908,0.965,4.562,0.666,3.651-1.668
		c-2.167-5.554,2.784-5.069,7.913,0.774l5.209,5.936l3.485-4.394c1.917-2.416,3.503-3.437,3.524-2.266
		c0.022,1.171,1.751,3.697,3.844,5.614c4.23,3.878,6.986,20.275,4.752,28.282c-2.601,9.314-3.527,10.705-5.868,8.794
		c-1.639-1.338-2.729-1.366-3.528-0.093c-0.637,1.014-2.54,1.843-4.228,1.843c-1.688,0-4.505,1.646-6.258,3.661
		c-1.752,2.014-4.291,3.244-5.641,2.734s-2.733-0.102-3.075,0.906C45.105,546.133,33.829,551.03,33.528,549.277z M452.467,495.456
		c-0.89-1.971-3.312-4.405-5.379-5.409c-3.011-1.459-3.459-2.637-2.24-5.875c1.967-5.23-1.74-9.057-8.777-9.057
		c-6.608,0-10.414-4.232-11.916-13.263c-0.987-5.939-0.547-7.676,2.679-10.544c3.258-2.896,6.03-3.354,17.741-2.934
		c7.638,0.274,15.75,0.854,18.033,1.286c2.283,0.432,4.807-0.188,5.607-1.378c1.092-1.621,1.92-1.393,3.301,0.911
		c1.014,1.69,3.252,3.075,4.975,3.075c4.912,0,15.207,11.411,14.088,15.617c-0.518,1.948-0.021,3.914,1.103,4.367
		c1.123,0.454,0.637,0.887-1.082,0.963c-1.721,0.077-3.127,1.325-3.127,2.775c0,1.449-1.205,2.636-2.68,2.636
		c-1.609,0-2.681,1.623-2.681,4.062c0,4.661-6.004,11.754-9.949,11.754c-1.467,0-3.096,1.1-3.618,2.442
		C466.975,500.909,454.418,499.79,452.467,495.456z M71.948,496.146c-2.073-0.772-4.344-2.855-5.045-4.629
		c-1.184-2.991-1.52-2.926-4.714,0.927l-3.439,4.148l-3.349-4.066c-3.334-4.052-3.321-4.092,3.291-10.532
		c8.489-8.269,14.139-10.185,17.337-5.879c1.304,1.753,2.369,4.618,2.369,6.366c0,1.747,0.805,3.179,1.787,3.179
		c2.858,0,2.064,5.131-1.34,8.656C76.609,496.631,74.645,497.151,71.948,496.146z M322.43,489.919
		c-1.483-3.803-0.785-4.49,2.521-2.479c1.913,1.162,2.083,2.11,0.634,3.537C324.133,492.402,323.287,492.119,322.43,489.919z
		 M45.895,481.68c1.157-1.372,1.718-2.874,1.247-3.338c-0.472-0.465,2.401-2.646,6.385-4.849c3.983-2.202,7.688-3.566,8.232-3.031
		s-0.553,3.58-2.438,6.769c-2.634,4.452-4.826,5.927-9.479,6.368C44.786,484.079,44.137,483.764,45.895,481.68z M267.304,479.176
		c-2.068-0.531-3.126-2.522-3.126-5.885c0-3.064-1.256-5.743-3.165-6.747c-2.657-1.399-3.138-3.985-3.003-16.132
		c0.144-12.855,0.617-14.827,4.255-17.727c2.252-1.794,5.692-3.262,7.646-3.262c1.953,0,5.92-2.494,8.814-5.543
		c7.001-7.373,10.357-4.799,6.958,5.334c-2.981,8.889-1.31,16.025,3.755,16.025c3.164,0,3.401,0.423,1.498,2.678
		c-1.243,1.474-2.674,2.271-3.181,1.772c-1.708-1.681-5.512,2.812-4.525,5.343c0.606,1.554-0.153,2.508-1.998,2.508
		c-1.637,0-2.479,0.791-1.872,1.758c0.607,0.966,0.053,1.76-1.233,1.763c-1.573,0.005-2.354,2.595-2.386,7.908
		c-0.026,4.347,0.777,7.914,1.785,7.93c1.01,0.015,0.628,0.794-0.846,1.729C273.875,480.415,272.448,480.498,267.304,479.176z
		 M302.209,474.309c-3.153-2.211-5.299-4.447-4.768-4.971c0.532-0.522,0.113-2.521-0.931-4.438c-1.679-3.088-0.948-3.927,6.367-7.31
		c6.642-3.071,8.56-3.365,9.764-1.496c2.105,3.269,1.924,8.909-0.245,7.59c-0.989-0.602-2.312,0.224-2.938,1.831
		c-0.629,1.609-0.152,3.526,1.056,4.262c1.612,0.979,1.391,1.64-0.834,2.479c-2.463,0.929-2.617,1.634-0.824,3.759
		C312.034,479.785,308.855,478.969,302.209,474.309z M417.569,477.053c1.344-0.837,3.142-2.604,3.99-3.927
		c1.141-1.771,1.557-1.363,1.576,1.55c0.021,2.945-0.998,3.947-3.992,3.927C416.182,478.583,415.768,478.175,417.569,477.053z
		 M341.811,474.998c-1.923-3.061,0.268-3.708,2.717-0.804c1.409,1.67,1.545,2.679,0.36,2.679
		C343.843,476.873,342.457,476.029,341.811,474.998z M320.523,468.206c-0.647-1.032-0.771-2.526-0.272-3.319
		c0.497-0.793-0.648-3.957-2.549-7.028c-1.898-3.073-2.662-5.587-1.692-5.587c2.206,0,2.328-11.012,0.146-13.27
		c-3.441-3.562-14.997-27.926-17.327-36.537c-2.931-10.829-3.35-19.266-0.757-15.23c2.876,4.474,6.319-1,6.128-9.739
		c-0.094-4.301,0.596-7.819,1.531-7.819c0.937,0,1.295-1.045,0.796-2.323c-0.498-1.277,0.544-3.213,2.315-4.302
		c4.03-2.476,5.987-13.508,3.734-21.053c-1.312-4.396-1.164-5.711,0.643-5.711c2.016,0,4.445-4.956,4.524-9.226
		c0.015-0.725-1.783-3.098-3.995-5.272c-3.067-3.019-4.103-6.24-4.372-13.62c-0.193-5.315-0.486-11.642-0.651-14.059
		c-0.164-2.416-0.171-6.766-0.016-9.665c0.156-2.899,0.227-6.458,0.153-7.908c-0.459-9.252,4.845-20.141,10.699-21.969
		c1.794-0.56,5.319-0.51,7.834,0.111c3.714,0.917,4.951,0.312,6.588-3.222c2.094-4.52-0.181-11.824-3.681-11.824
		c-0.896,0,0.721-4.942,3.592-10.983c3.94-8.288,5.343-14.05,5.712-23.481c0.479-12.209,0.613-12.533,5.85-14.058
		c4.092-1.192,5.364-2.601,5.384-5.955c0.014-2.416,2.098-7.556,4.631-11.422c8.898-13.58,9.274-12.755,6.189-17.387
		c-3.457-5.19-3.497-6.094-0.266-6.094c1.397,0,3.509-2.966,4.691-6.59s3.344-7.935,4.802-9.578
		c2.359-2.662,3.086-2.708,6.627-0.426c3.688,2.379,4.125,2.241,6.055-1.927c1.144-2.469,2.078-7.22,2.078-10.557
		s0.805-6.068,1.787-6.068s1.787,0.791,1.787,1.757c0,0.966,1.646,1.757,3.66,1.757c2.014,0,6.176,1.279,9.25,2.842
		c5.25,2.671,5.731,2.646,8.012-0.419c1.469-1.976,1.713-3.494,0.621-3.853c-1.051-0.345-0.601-2.396,1.086-4.925
		c2.299-3.454,2.479-5.211,0.885-8.655c-1.598-3.447-1.506-4.321,0.449-4.321c1.346,0,2.893,1.134,3.432,2.521
		c0.541,1.386,6.783,6.527,13.873,11.425c17.056,11.782,21.959,18.914,21.453,31.196c-0.211,5.134,0.387,9.335,1.328,9.335
		s1.314,1.489,0.83,3.309c-0.482,1.82,0.334,3.615,1.813,6.433c2.119,4.032,2.318,6.852,0.937,13.231
		c-1.178,5.432-1.148,10.332,0.088,14.851c1.016,3.709,1.871,7.469,1.898,8.355c0.078,2.445-11.879,1.925-15.037-0.655
		c-2.025-1.653-2.775-1.705-2.775-0.189c0,1.142-0.803,1.587-1.785,0.99c-1.039-0.631-1.787,1.104-1.787,4.141
		c0,3.507-1.729,6.832-5.254,10.104c-2.889,2.683-4.83,5.552-4.311,6.377c0.518,0.824-0.51,3.639-2.285,6.254
		c-3.674,5.417-3.469,9.06,0.686,12.211c2.601,1.972,2.466,2.619-1.396,6.662c-2.352,2.463-5.109,6.986-6.129,10.052
		c-1.31,3.933-4.482,7.072-10.785,10.662c-8.156,4.646-24.115,21.516-24.115,25.492c0,0.912-2.063,2.988-4.586,4.613
		c-3.428,2.209-4.104,3.525-2.684,5.21c1.373,1.628,0.885,5.134-1.758,12.623c-2.83,8.012-3.401,12.642-2.514,20.369
		c1.042,9.086,1.596,10.097,6.033,11.056c5.127,1.108,18.012,15.836,18.012,20.59c0,1.431-2.202,3.589-4.895,4.796
		c-4.572,2.049-4.684,2.346-1.68,4.506c3.465,2.492,1.034,5.592-2.634,3.361c-1.145-0.695-1.582-0.49-0.985,0.461
		c0.594,0.943-0.438,2.993-2.291,4.554c-2.412,2.031-3.615,2.246-4.234,0.753c-0.533-1.29-0.91-1.08-0.988,0.55
		c-0.067,1.45-2.579,4.623-5.584,7.051c-4.822,3.901-5.561,5.744-6.334,15.816c-0.481,6.27-1.366,12.982-1.967,14.915
		c-0.6,1.934-1.249,6.08-1.442,9.217c-0.194,3.136-1.836,8.937-3.648,12.891c-3.273,7.141-3.347,7.181-10.994,6.053
		c-6.381-0.94-7.698-0.647-7.698,1.711c0,1.566-0.713,2.414-1.584,1.886c-2.461-1.496-5.655,3.356-5.136,7.801
		c0.336,2.881-0.533,4.112-3.104,4.4c-1.966,0.222-4.898,0.952-6.519,1.626C323.028,469.531,321.172,469.238,320.523,468.206z
		 M485.979,456.724c-3.049-3.416-6.887-6.211-8.527-6.211c-1.64,0-3.989-1.354-5.221-3.009c-1.67-2.248-2.85-2.527-4.662-1.104
		c-1.336,1.048-3.633,1.714-5.104,1.479c-1.476-0.232-8.621-0.918-15.882-1.521c-11.446-0.952-14-0.613-19.202,2.551l-6.002,3.648
		l0.01-4.976c0.006-2.737,1.213-7.241,2.68-10.01c1.469-2.77,2.682-6.724,2.695-8.786c0.037-5.104,1.709-7.001,8.012-9.094
		c4.748-1.577,5.818-1.244,9.379,2.913c2.211,2.58,4.021,5.538,4.021,6.573c0,1.034,1.606,2.729,3.571,3.762
		c7.193,3.787,15.459-4.827,13.414-13.981c-0.965-4.327-0.367-5.357,4.502-7.746c6.345-3.114,9.976-1.696,17.521,6.842
		c3.02,3.417,4.668,4.074,7,2.79c2.143-1.18,4.547-0.809,8.092,1.251c4.475,2.602,4.934,3.68,4.092,9.604
		c-0.53,3.732-0.242,6.244,0.652,5.698c0.881-0.534,2.531,1.802,3.67,5.191c1.848,5.509,1.627,6.72-2.09,11.399
		c-2.787,3.512-5.312,4.979-7.664,4.462c-1.928-0.425-4.836,0.41-6.459,1.855C491.813,462.675,490.975,462.321,485.979,456.724z
		 M385.649,424.069c0-5.052,7.01-13.976,10.98-13.976c2.621,0,1.664,3.572-1.252,4.673c-1.628,0.613-2.562,2.676-2.257,4.972
		c0.525,3.94-2.977,9.685-5.903,9.685C386.356,429.425,385.649,427.015,385.649,424.069z M488.1,416.742
		c-4.779-5.82-12.875-10.529-15.416-8.966c-4.773,2.935-7.025,2.116-6.178-2.245c0.883-4.547-1.828-7.749-3.845-4.54
		c-1.461,2.325-3.948,0.701-6.914-4.515c-1.807-3.177-1.807-3.959,0-3.98c1.39-0.017,1.566-0.52,0.462-1.318
		c-0.982-0.71-2.048-3.128-2.367-5.375c-0.416-2.931,0.465-4.354,3.127-5.038c2.039-0.525,3.707-1.525,3.707-2.224
		c0-2.227,9.219-5.496,12.559-4.453c1.771,0.552,3.668,0.288,4.217-0.587c1.199-1.907,7.248-1.358,14.154,1.283
		c2.768,1.058,8.549,1.923,12.848,1.923h7.82l-4.342,7.469c-4.588,7.892-5.691,18.477-2.531,24.283
		c1.443,2.654,1.08,4.219-1.65,7.101c-1.926,2.033-4.401,3.149-5.502,2.48c-1.102-0.669-3.09-0.328-4.42,0.758
		C491.963,420.318,490.651,419.848,488.1,416.742z M238.118,406.832c0.52-0.828-2.246-4.028-6.147-7.112
		c-4.431-3.503-7.082-7.06-7.065-9.479c0.022-3.144,0.354-3.375,1.76-1.235c1.359,2.07,1.736,2.118,1.759,0.224
		c0.022-2.022,0.533-2.032,3.153-0.058c1.72,1.295,2.498,1.63,1.729,0.746c-0.768-0.885,0.438-2.644,2.68-3.911
		c3.922-2.215,3.873-2.263-1.283-1.267c-4.093,0.791-4.727,0.593-2.68-0.837c1.475-1.03,1.875-1.91,0.894-1.956
		c-0.982-0.045-0.227-1.244,1.681-2.663c2.5-1.86,2.75-2.596,0.894-2.636c-1.942-0.042-1.783-0.646,0.646-2.458
		c2.28-1.7,2.562-2.618,0.968-3.141c-2.94-0.965-12.529,3.751-11.373,5.594c0.49,0.781-0.707,1.831-2.661,2.333
		c-4.226,1.087-4.651-1.225-0.812-4.399c1.508-1.246,3.824-3.217,5.146-4.379c1.322-1.162,2.788-1.736,3.257-1.275
		c0.468,0.46,1.971-0.516,3.339-2.17c2.166-2.618,2.12-2.873-0.354-1.962c-1.562,0.575-3.975,0.339-5.358-0.523
		c-1.385-0.862-1.643-1.58-0.571-1.595c1.071-0.015,2.977-2.202,4.237-4.859c2.147-4.532,1.822-6.4-0.536-4.221
		c-4.094,3.784-4.33,3.811-5.182,0.607c-0.49-1.846-0.149-4.661,0.758-6.256c1.765-3.103,0.36-7.014-2.001-5.578
		c-0.783,0.476-2.809-0.638-4.499-2.477c-2.974-3.232-2.79-3.382,5.566-4.534c13.767-1.898,5.214-3.409-0.735-3.315
		c-10.678,0.168-12.065-1.428-3.573-4.108c5.339-1.685,5.447-1.856,1.34-2.135c-4.125-0.28-4.194-0.418-0.895-1.813
		c1.966-0.831,2.521-1.566,1.234-1.634s-1.841-0.914-1.234-1.881c0.607-0.966-0.247-1.757-1.898-1.757
		c-2.467,0-2.606-0.471-0.78-2.636c2.963-3.512,6.556-3.333,8.789,0.439c1.001,1.691,1.845,2.132,1.875,0.979
		c0.03-1.153,1.53-1.816,3.333-1.475c1.803,0.341,4.416-0.087,5.806-0.953c2.961-1.844,2.235-1.989-16.001-3.22
		c-2.021-0.136-2.044-0.647-0.132-2.914c1.562-1.852,3.82-2.385,6.917-1.633c3.639,0.883,4.146,0.663,2.429-1.056
		c-1.707-1.708-1.517-2.662,0.893-4.462c4.878-3.646,7.525-2.798,7.586,2.431c0.054,4.588,0.188,4.663,2.633,1.484
		c2.296-2.984,2.177-3.688-1.094-6.48c-2.019-1.722-4.812-2.701-6.206-2.175c-1.395,0.526-2.535-0.029-2.535-1.234
		c0-1.607,2.739-1.936,10.271-1.234c5.648,0.526,8.723,0.38,6.83-0.325c-4.621-1.722-0.198-3.468,6.854-2.707
		c3.761,0.406,4.554,0.036,3.063-1.43c-2.947-2.899-2.458-5.585,0.566-3.115c2.114,1.726,2.528,1.447,2.3-1.542
		c-0.153-2.006-1.515-3.71-3.024-3.786c-1.51-0.077-0.371-0.987,2.532-2.023c6.378-2.278,13.589-8.382,9.901-8.382
		c-1.628,0-1.292-0.844,0.991-2.486c3.754-2.701,6.569-0.611,4.909,3.645c-0.61,1.562,0.498,2.347,3.291,2.329
		c3.374-0.021,3.678-0.365,1.531-1.73c-2.034-1.293-1.28-1.71,3.126-1.73c4.538-0.021,5.806-0.769,5.806-3.423
		c0-1.868,1.521-3.871,3.38-4.451c2.223-0.694,3.293-2.54,3.126-5.39c-0.312-5.297-2.975-5.507-8.541-0.674
		c-3.052,2.65-3.354,3.394-1.091,2.691c4.828-1.499,3.694,1.615-1.424,3.909c-6.396,2.866-8.887,2.625-6.168-0.597
		c1.842-2.183,1.648-2.641-1.121-2.663c-2.683-0.022-2.84-0.341-0.797-1.613c1.4-0.873,2.823-3.368,3.162-5.547
		c0.771-4.979,3.784-8.629,7.119-8.629c1.411,0,2.069-0.791,1.463-1.757c-0.607-0.967-0.292-1.757,0.698-1.757
		c0.991,0,2.446,1.104,3.231,2.455c1.223,2.102,1.76,2.102,3.731,0c1.268-1.35,1.668-2.51,0.894-2.578
		c-0.775-0.068,0.196-0.803,2.162-1.634c3.284-1.389,3.213-1.525-0.894-1.692l-4.466-0.182l4.217-3.457
		c2.319-1.901,3.57-3.456,2.779-3.456s1.222-1.931,4.473-4.29c3.251-2.36,7.17-6.116,8.709-8.347
		c2.74-3.974,2.726-3.995-0.766-1.006c-2.748,2.354-4.047,2.575-5.683,0.966c-3.707-3.646-2.573-7.033,1.887-5.64
		c3.56,1.111,3.733,0.929,1.568-1.637c-1.979-2.348-2.023-3.867-0.233-8.119c1.945-4.622,2.646-5.001,6.022-3.26
		c3.638,1.875,3.679,1.811,0.861-1.361c-2.637-2.968-2.665-3.597-0.258-5.771c2.075-1.875,3.011-1.946,4.042-0.306
		c0.965,1.536,2.788,0.857,6.51-2.422l5.17-4.556l-4.466,0.302c-2.457,0.166-6.332,0.179-8.613,0.029
		c-3.427-0.226-3.737-0.671-1.786-2.568c1.298-1.262,3.945-2.886,5.883-3.609c2.955-1.103,3.1-1.578,0.895-2.95
		c-2.145-1.334-1.97-1.664,0.943-1.786c3.571-0.15,3.571-0.15,0-1.661c-3.573-1.51-3.573-1.51,0-1.661
		c2.808-0.118,3.031-0.487,1.05-1.721c-2.133-1.328-2.063-2.023,0.445-4.492c1.635-1.607,2.994-2.271,3.024-1.478
		c0.029,0.794,0.866,0.071,1.86-1.606c1.923-3.247,9.797-3.712,13.716-0.81c1.557,1.153,2.231,2.801,2.231,0.836
		c0-2.611-2.448-3.674-11.591-5.033c-3.387-0.503-3.351-0.727,0.781-4.792c2.725-2.68,4.597-3.488,5.041-2.176
		c0.389,1.147,1.779,2.087,3.089,2.087c1.312,0,2.65,0.765,2.978,1.7c0.328,0.935,1.522-0.247,2.656-2.627
		c1.93-4.052,1.787-4.259-2.232-3.267c-3.248,0.802-4.293,0.347-4.293-1.87c0-1.612,0.641-2.541,1.425-2.064
		c0.783,0.477,2.459,0.238,3.723-0.53c1.794-1.091,1.69-1.626-0.475-2.443c-1.525-0.575-3.248-0.29-3.828,0.634
		c-1.511,2.404-6.639,2.084-5.811-0.363c0.809-2.383,5.328-3.657,13.381-3.77c5.747-0.08,9.171-3.606,5.605-5.773
		c-1.263-0.768-1.093-1.645,0.51-2.619c1.93-1.172,1.963-1.903,0.175-3.664c-1.79-1.76-1.432-2.639,1.801-4.404
		c3.254-1.777,3.431-2.217,0.91-2.268c-1.72-0.034-3.126-0.837-3.126-1.784c0-2.158,13.046-8.813,17.345-8.849
		c2.719-0.023,2.797-0.282,0.52-1.73c-1.475-0.937-1.877-1.728-0.895-1.757c0.981-0.029,0.633-0.772-0.777-1.65
		c-2.127-1.323-2.164-2.071-0.229-4.366c1.285-1.523,3.442-2.77,4.797-2.77c1.555,0,2.461-1.981,2.461-5.375
		c0-2.973,0.764-4.912,1.709-4.337c0.938,0.571,1.266,2.397,0.725,4.058c-0.639,1.961-0.444,2.293,0.552,0.949
		c2.088-2.817,8.362-2.052,9.774,1.191c0.932,2.139,1.412,1.973,2.547-0.878c0.769-1.933,2.604-5.367,4.076-7.629
		c1.475-2.264,2.898-6.136,3.166-8.607c0.268-2.47,1.414-5.363,2.549-6.429c2.431-2.284,0.625,15.039-2.178,20.908
		c-1.652,3.458-1.635,3.459,1.098,0.104c1.527-1.876,2.777-4.446,2.777-5.711c0-2.784,0.867-2.849,5.924-0.446
		c3.543,1.684,3.613,1.625,0.775-0.633c-4.633-3.687-3.609-12.888,1.065-9.568c0.34,0.242,1.908-0.615,3.486-1.902
		c2.986-2.438,10.186-1.321,10.186,1.582c0,0.901,0.832,1.639,1.851,1.639c1.229,0,1.184-1.222-0.139-3.652
		c-1.093-2.008-1.56-4.751-1.033-6.094c0.522-1.343,0.184-2.91-0.756-3.481c-2.099-1.275,0.17-0.832,1.645-0.832
		c1.104,0,13.387,4.537,11.643,7.392c-1.118,1.829-0.854,1.847,1.351,0.092c1.508-1.2,3.27-1.661,3.916-1.025
		c1.639,1.613,1.465-0.207-0.51-5.316c-1.296-3.353-1.062-4.592,1.006-5.374c1.479-0.559,2.264-1.695,1.742-2.526
		c-0.522-0.831,0.145-2.981,1.479-4.779c2.15-2.894,2.787-2.975,5.559-0.712c2.843,2.32,3.021,2.214,1.939-1.136
		c-0.758-2.353-0.203-4.498,1.529-5.913c1.496-1.221,2.719-4.364,2.719-6.984c0-5.738,4.732-6.542,6.492-1.103
		c1.037,3.212,1.313,3.292,2.258,0.65c0.758-2.121,1.848-2.542,3.684-1.425c2.259,1.373,2.216,2.014-0.321,4.771
		c-2.664,2.896-5.757,9.239-6.689,13.723c-0.201,0.966-1.113,2.644-2.027,3.728c-0.954,1.132-1.022,3.672-0.157,5.972
		c1.471,3.91,1.586,3.865,5.096-1.97c1.975-3.285,5.887-10.567,8.695-16.184c2.807-5.617,5.752-10.606,6.543-11.087
		c2.287-1.39,1.668,5.434-0.705,7.768c-1.615,1.59-1.627,2.109-0.045,2.109c1.375,0,1.733,1.799,1.041,5.204
		c-1.017,5.005-0.89,5.126,3.319,3.171c3.125-1.45,4.377-3.453,4.377-6.992c0-2.855,1.455-6.013,3.425-7.439
		c3.198-2.316,3.219-2.558,0.299-3.671c-1.719-0.656-3.125-1.701-3.123-2.322c0.006-1.767,11.322-2.088,14.07-0.4
		c3.231,1.987,0.973,5.421-3.566,5.421c-2.027,0-3.074,0.793-2.42,1.834c0.633,1.009,0.078,3.115-1.234,4.681
		c-2.143,2.556-1.977,2.631,1.633,0.74c4.459-2.338,4.91-1.632,2.171,3.404c-1.019,1.87-1.22,3.387-0.447,3.372
		c3.104-0.06,5.459-2.933,7.535-9.199c2.139-6.458,7.266-9.208,7.266-3.899c0,1.48,1.406,3.202,3.125,3.826
		c1.721,0.624,3.717,1.983,4.439,3.02c0.891,1.279,1.319,1.197,1.34-0.256c0.016-1.193,1.231-1.686,2.752-1.113
		c2.242,0.847,2.322,1.518,0.447,3.789c-1.953,2.366-1.794,2.581,1.116,1.505c2.322-0.858,4.496-0.092,6.879,2.423
		c1.914,2.022,3.199,3.852,2.855,4.065c-0.344,0.213-3.969,2.591-8.055,5.284c-7.248,4.776-7.57,4.825-13.156,1.982
		c-8.102-4.122-11.654-0.484-3.809,3.899c3.104,1.733,5.278,4.1,4.838,5.259c-0.48,1.259,0.235,1.714,1.782,1.13
		c2.902-1.096,3.58,2.104,0.804,3.792c-0.982,0.597-1.787,1.927-1.787,2.955c0,1.139,1.102,0.97,2.815-0.43
		c2.332-1.905,3.095-1.867,4.438,0.224c2.766,4.3,1.875,6.726-3.473,9.446c-2.921,1.485-5.669,4.658-6.351,7.328
		c-0.852,3.338-1.758,4.163-3.108,2.833c-1.352-1.33-0.787-3.424,1.942-7.194c5.26-7.269,3.519-12.664-6.85-21.202l-8.412-6.929
		l-5.238,3.426c-2.883,1.884-8.336,4.261-12.119,5.282c-3.782,1.021-6.457,2.272-5.938,2.781c0.518,0.508-0.662,4.599-2.619,9.09
		c-2.344,5.38-3.193,10.074-2.49,13.761c0.885,4.635,0.428,5.796-2.662,6.761c-2.053,0.641-4.469,3.074-5.371,5.408
		c-1.977,5.115-2.903,5.194-9.643,0.824c-5.18-3.358-5.291-3.358-10.135,0.035c-6.726,4.71-11.914,2.119-18.365-9.169
		c-4.455-7.797-5.566-8.695-9.539-7.714c-2.473,0.61-5.66,2.257-7.086,3.659c-1.426,1.402-4.143,2.549-6.037,2.549
		c-4.018,0-4.076,0.229-1.475,5.846c1.492,3.22,1.401,5.268-0.365,8.43c-1.285,2.297-2.121,5.56-1.859,7.251
		c0.265,1.691,0.056,3.075-0.467,3.075c-1.051,0-12.688-4.812-17.662-7.303c-4.694-2.352-6.623-0.333-6.651,6.968
		c-0.039,9.021-2.421,12.378-6.859,9.672c-2.854-1.739-4.014-1.447-6.994,1.757c-1.966,2.114-4.153,5.82-4.861,8.236
		c-0.709,2.416-2.909,5.656-4.892,7.2c-3.451,2.688-3.474,3-0.537,7.409c2.983,4.479,2.915,2.861-2.568,12.29
		c-3.1,5.328-6.422,10.167-7.385,10.751c-0.962,0.585-1.229,2.677-0.592,4.65c1.284,3.982-1.572,6.592-7.265,6.635
		c-3.224,0.024-3.614,1.348-3.997,13.516c-0.335,10.625-1.525,15.801-5.606,24.38c-5.048,10.612-5.095,10.964-1.808,13.732
		c5.788,4.876,3.148,12.945-3.55,10.853c-10.094-3.151-20.558,9.32-19.847,23.654c0.071,1.45,0.003,5.008-0.152,7.908
		c-0.156,2.9-0.15,7.249,0.015,9.665c0.165,2.417,0.458,8.89,0.652,14.384c0.274,7.812,1.229,10.797,4.372,13.688
		c2.211,2.034,4.02,4.393,4.02,5.242c0,3.56-2.341,7.104-4.691,7.104c-1.894,0-2.18,1.204-1.147,4.833
		c2.718,9.561,1.229,20.073-3.329,23.521c-2.326,1.76-3.527,3.217-2.671,3.239c0.856,0.021,0.622,1.149-0.523,2.507
		c-1.145,1.357-1.604,4.341-1.02,6.631c0.584,2.29,0.268,6.122-0.703,8.515c-1.105,2.727-1.808,3.274-1.878,1.467
		c-0.062-1.586-2.123-3.381-4.58-3.987c-4.521-1.117-5.072-2.617-4.734-12.897c0.103-3.142-0.5-5.711-1.339-5.711
		c-3.343,0-5.215,4.764-4.351,11.074c0.924,6.743-1.866,12.652-5.057,10.712c-0.923-0.561-3.138,0.634-4.919,2.655
		c-1.783,2.022-4.199,3.676-5.37,3.676s-1.619,0.812-0.995,1.806c1.174,1.868-9.678,13.013-11.207,11.509
		c-0.473-0.465-2.028,0.302-3.455,1.706C251.291,408.463,236.48,409.438,238.118,406.832z M237.601,303.469
		c-2.105-3.562-2.614-2.422-0.891,1.997c0.612,1.57,1.49,2.485,1.95,2.033S238.644,305.233,237.601,303.469z M442.813,62.388
		c1.473-0.937,1.875-1.703,0.893-1.703c-0.981,0-2.991,0.766-4.465,1.703c-1.475,0.937-1.877,1.704-0.895,1.704
		C439.327,64.092,441.338,63.325,442.813,62.388z M435.666,401.286c0-2.167,1.604-3.822,4.365-4.503
		c6.049-1.494,9.33,0.762,5.146,3.538C438.694,404.62,435.666,404.928,435.666,401.286z M440.381,389.545
		c-2.013-1.979-1.226-4.053,1.539-4.053c1.473,0,2.678,0.744,2.678,1.653C444.598,389.362,441.809,390.949,440.381,389.545z
		 M446.983,361.646c-0.551-1.412-0.586-4.122-0.082-6.024c0.771-2.899,0.391-3.179-2.359-1.731c-5.092,2.681-9.426,2.164-8.2-0.979
		c0.619-1.583,0.143-2.598-1.148-2.445c-1.213,0.144-3.885-0.279-5.938-0.94c-3.031-0.975-3.642-2.419-3.232-7.66
		c0.277-3.552,0.646-6.853,0.822-7.336c0.174-0.483,0.252-1.383,0.172-1.999c-0.08-0.616,0.6-3.676,1.512-6.799
		c1.232-4.23,0.955-7.01-1.09-10.9c-1.51-2.872-2.297-6.37-1.75-7.773s0.066-5.966-1.066-10.139
		c-1.877-6.902-1.713-7.956,1.812-11.68c2.133-2.251,3.676-5.328,3.43-6.837c-0.299-1.833,1.201-2.929,4.517-3.304
		c2.729-0.309,4.764-1.495,4.52-2.636c-0.803-3.753,4.734-13.517,8.297-14.629c4.504-1.406,6.045-3.068,13.365-14.406
		c7.984-12.372,10.506-14.677,14.639-13.386c3.117,0.973,3.332,0.382,2.379-6.53c-1.83-13.272-2.543-15.25-5.871-16.29
		c-10.192-3.183-16.03-16.802-13.065-30.479c1.381-6.373,1.184-9.2-0.928-13.215c-1.502-2.856-2.214-4.961-1.613-7.312
		c0.631-2.469,0.285-4.204-0.836-4.204c-1.142,0-1.752-3.368-1.521-8.378c0.529-11.406-5.709-20.325-21.762-31.115
		c-13.289-8.933-19.828-16.427-12.272-14.069c3.168,0.99,3.772,0.679,2.924-1.501c-0.699-1.792,0.186-3.142,2.543-3.878
		c1.989-0.621,3.84-0.859,4.112-0.529c0.273,0.33,2.628,4.23,5.228,8.666c6.219,10.605,12.244,13.449,18.695,8.826
		c4.702-3.37,4.75-3.367,12.188,0.921l7.467,4.304l1.14-5.104c0.688-3.086,2.926-5.905,5.653-7.128
		c3.867-1.733,4.345-2.792,3.32-7.375c-1.543-6.908,5.354-24.472,9.613-24.485c1.604-0.005,6.1-1.902,9.983-4.216l7.064-4.207
		l7.498,6.043c9.385,7.566,11.039,13.084,6.006,20.039c-2.06,2.844-3.213,6.017-2.562,7.05c0.65,1.034-0.155,3.333-1.788,5.11
		c-1.959,2.129-2.322,3.624-1.064,4.389c1.346,0.818,1.352,2.184,0.018,4.635c-1.086,1.995-1.391,6.754-0.717,11.176
		c0.945,6.198,2.127,8.09,6.055,9.69c2.685,1.094,6.554,4.869,8.599,8.389l3.719,6.4l-6.055,11.827l-6.056,9.827l5.265,12.56
		c7.487,17.86,9.207,24.618,6.524,25.63c-4.393,1.659-4.928,24.843-0.643,27.924c1.852,1.332,2.51,3.474,1.84,5.99
		c-0.711,2.674,0.166,5.022,2.767,7.405c4.995,4.578,4.809,7.897-0.644,11.41l-4.449,2.868l3.644,5.031
		c2.002,2.767,5.979,6.391,8.838,8.052c8.094,4.703,9.953,11.063,5.639,19.292c-3.338,6.366-16.229,23.56-21.869,29.167
		c-1.395,1.387-7.26,7.763-13.032,14.17c-8.929,9.907-11.332,11.617-16.084,11.441c-3.074-0.113-8.156,1.101-11.298,2.698
		c-3.141,1.597-7.385,2.904-9.434,2.904s-5.666,1.251-8.039,2.781s-6.164,3.043-8.422,3.363c-2.26,0.32-6.764,1.397-10.008,2.395
		C449.143,363.855,447.787,363.708,446.983,361.646z M439.24,359.467c0-0.944,1.271-2.196,2.828-2.784
		c1.74-0.657,2.558-0.264,2.121,1.02C443.299,360.33,439.24,361.776,439.24,359.467z M405.299,356.496
		c0-1.45,1.18-2.636,2.623-2.636c1.598,0,2.223,1.03,1.596,2.636c-0.566,1.45-1.746,2.636-2.623,2.636
		S405.299,357.946,405.299,356.496z M335.632,124.674c0-2.689,7.336-6.343,11.227-5.592c1.194,0.23,2.061-0.965,1.923-2.656
		c-0.137-1.691,0.411-3.075,1.216-3.075c0.806,0,1.722-1.717,2.034-3.816c0.708-4.732,5.017-6.459,5.094-2.042
		c0.055,3.037,0.191,3.047,2.409,0.174c2.456-3.182,4.681-2.43,4.681,1.583c0,2.325-3.29,6.065-9.79,11.13
		c-3.109,2.422-3.278,2.359-2.079-0.78c1.271-3.332,1.214-3.336-2.346-0.167c-2.008,1.787-3.649,2.58-3.649,1.762
		c0-0.818-1.005-0.26-2.232,1.24C340.805,126.479,335.632,127.844,335.632,124.674z M343.657,112.245
		c2.865-4.303,2.846-4.37-0.754-2.476c-2.727,1.436-3.699,1.426-3.699-0.036c0-1.091,1.607-2.397,3.572-2.903
		s3.652-1.815,3.751-2.911c0.098-1.096,0.773-0.015,1.502,2.401c0.729,2.417,0.656,5.257-0.162,6.312
		c-0.817,1.055-1.127,2.273-0.687,2.707c0.44,0.433-0.835,0.909-2.834,1.057C340.867,116.656,340.839,116.477,343.657,112.245z
		 M378.276,83.597c2.613-1.376,3.685-1.2,4.438,0.734c0.547,1.401,0.213,3.023-0.744,3.604c-0.955,0.581-1.349,1.677-0.871,2.436
		c0.477,0.758-1.156,2.285-3.627,3.393C372.007,96.212,376.381,84.594,378.276,83.597z M397.475,82.813
		c-1.385-5.429,0.264-9.881,3.658-9.881c1.897,0,2.446,1.73,2.041,6.454C402.524,86.957,399.063,89.038,397.475,82.813z
		 M386.998,77.326c0.472-2.417,1.479-4.394,2.24-4.394c2.451,0,3.344,4.778,1.273,6.815
		C387.309,82.898,386.08,82.052,386.998,77.326z M394.58,68.539c-1.819-2.159-1.698-2.636,0.677-2.636
		c1.594,0,2.909-0.988,2.926-2.196c0.02-1.555,0.492-1.473,1.621,0.28c1.696,2.638,0.672,7.188-1.621,7.188
		C397.424,71.175,395.805,69.989,394.58,68.539z M456.047,42.397c-1.492-3.827-0.447-4.854,2.879-2.832
		c2.043,1.242,2.143,2.052,0.453,3.713C457.692,44.939,456.965,44.747,456.047,42.397z"/>
</g>
</svg>
