<?xml version="1.0" encoding="utf-8"?>
<!-- Generator: Adobe Illustrator 16.0.0, SVG Export Plug-In . SVG Version: 6.00 Build 0)  -->
<!DOCTYPE svg PUBLIC "-//W3C//DTD SVG 1.1//EN" "http://www.w3.org/Graphics/SVG/1.1/DTD/svg11.dtd">
<svg version="1.1" id="svg2" xmlns:svg="http://www.w3.org/2000/svg"
	 xmlns="http://www.w3.org/2000/svg" xmlns:xlink="http://www.w3.org/1999/xlink" x="0px" y="0px" width="744.094px" height="875px"
	 viewBox="0 0 744.094 875" enable-background="new 0 0 744.094 875" xml:space="preserve">
<g id="layer1">
	<path id="path1364" fill="#EAE9E8" stroke="#000000" stroke-width="0.25" stroke-miterlimit="10" d="M345.596,1224.97
		c-0.902-1.438-4.256-2.632-7.457-2.65c-3.198-0.026-7.608-1.189-9.796-2.594c-2.742-1.76,0.151-2.1,9.288-1.097
		c19.743,2.167,25.212,3.556,25.212,6.391C362.845,1228.385,347.714,1228.342,345.596,1224.97z M558.179,1202.537
		c-0.995-2.546,0.102-6.421,2.577-9.109c7.556-8.215-0.131-13.841-8.141-5.96c-3.241,3.188-5.108,3.517-7.355,1.306
		c-4.313-4.245-13.989-3.657-17.995,1.094c-4.186,4.965-11.364,8.855-21.717,11.776c-6.494,1.829-8.929,1.132-14.253-4.108
		c-5.574-5.482-25.842-14.337-32.82-14.337c-1.307,0-2.754,2.612-3.225,5.809c-0.992,6.799-10.956,12.448-18.526,10.498
		c-2.907-0.747-6.387-4.207-7.733-7.687c-1.343-3.48-3.56-5.649-4.921-4.82c-1.363,0.831-4.203-0.922-6.316-3.889
		c-3.016-4.238-5.476-5.007-11.462-3.592c-4.188,0.99-6.799,0.925-5.792-0.146s-1.262-4.76-5.034-8.203
		c-3.771-3.436-5.486-6.253-3.812-6.253c1.671,0,3.041-1.761,3.041-3.916c0-2.154-1.79-3.915-3.982-3.915s-3.982-1.766-3.982-3.916
		c0-2.154,1.494-3.935,3.316-3.956c2.304-0.031,2.151-0.768-0.49-2.413c-3.128-1.948-3.201-3.096-0.403-6.414
		c2.814-3.334,2.648-4.789-0.926-8.308c-3.575-3.52-3.74-4.98-0.929-8.345c3.003-3.596,2.385-3.88-5.214-2.4
		c-7.065,1.38-8.618,0.866-8.585-2.82c0.101-11.359,11.91-15.92,42.424-16.396c9.488-0.149,15.455-0.989,13.269-1.87
		c-2.626-1.058-0.371-2.695,6.634-4.815c6.011-1.82,8.258-3.299,5.177-3.412c-5.188-0.191-11.811-4.696-11.811-8.033
		c0-1.814,21.802-0.732,32.476,1.612c5.249,1.151,7.714,0.445,8.882-2.55c2.844-7.287,34.615-20.235,48.469-19.754
		c6.793,0.236,14.332-0.383,16.752-1.379c3.044-1.249,4.917-0.22,6.059,3.321c1.842,5.708,11.181,9.258,13.72,5.216
		c0.898-1.428,3.029,0.153,4.737,3.51c1.709,3.357,5.455,6.227,8.323,6.375c2.871,0.152,8.803,1.721,13.178,3.496
		c12.431,5.03,23.37,6.117,33.582,3.346c6.169-1.676,11.004-1.657,14.114,0.051c5.272,2.903,23.765-1.381,30.595-7.087
		c2.19-1.83,9.572-3.91,16.406-4.624c11.595-1.206,12.976-0.682,20.697,7.896c5.524,6.139,7.391,10.059,5.611,11.807
		c-1.563,1.535-1.722,4.334-0.392,6.781c1.248,2.294,2.685,5.347,3.194,6.78c0.508,1.436,3.909,2.611,7.56,2.611
		c6.07,0,6.896,1.323,5.704,9.134c-0.218,1.439-2.318,2.613-4.663,2.613c-2.893,0-3.718,1.4-2.564,4.361
		c4.725,12.112,6.842,27.724,4.184,30.872c-2.017,2.391-1.772,3.707,0.883,4.708c2.022,0.765,4.32,3.798,5.104,6.743
		c1.35,5.084,0.501,5.3-16.85,4.332c-10.195-0.57-18.974,0.101-19.868,1.518c-1.01,1.609-2.884,1.49-5.106-0.322
		c-2.426-1.98-4.036-2.018-5.229-0.126c-0.946,1.506-6.979,2.737-13.406,2.737c-6.427,0-17.797,2.372-25.265,5.266
		c-11.751,4.557-15.001,4.847-24.154,2.146c-8.263-2.436-12.551-2.414-19.605,0.095c-6.896,2.448-10.388,2.498-14.765,0.194
		c-4.506-2.372-6.221-2.261-8.021,0.515c-1.259,1.945-1.715,5.065-1.018,6.937c0.696,1.871-0.955,5.751-3.674,8.621
		C560.338,1206.511,559.753,1206.578,558.179,1202.537z M-233.256,1202.086c-1.631-1.056-5.47-6.782-8.529-12.727
		c-3.717-7.212-8.247-11.726-13.625-13.57c-9.005-3.088-10.273-8.315-3.611-14.868c3.628-3.572,3.859-5.3,1.243-9.419
		c-2.565-4.039-2.427-6.137,0.692-10.516c3.434-4.825,3.415-6.192-0.177-11.585c-3.691-5.542-3.656-6.525,0.375-10.491
		c2.446-2.405,3.868-6.544,3.163-9.201c-0.707-2.654-0.125-5.536,1.293-6.397c1.417-0.862,2.237-4.753,1.822-8.65
		c-0.461-4.33,1.609-10.044,5.325-14.693c3.492-4.363,4.869-8.003,3.24-8.537c-1.567-0.514-2.845-3.186-2.845-5.935
		c0-3.742-1.88-5.003-7.431-5.003c-4.087,0-8.586,1.136-9.998,2.521c-2.965,2.918-14.418,0.631-14.418-2.878
		c0-1.296-2.984-1.618-6.635-0.717c-5.688,1.404-6.635,0.748-6.635-4.592c0-3.426-1.895-8.888-4.21-12.144
		c-3.321-4.663-3.537-6.715-1.027-9.69c1.754-2.073,4.136-3.193,5.3-2.489c3.44,2.091,10.553-1.609,10.553-5.485
		c0-4.995,12.435-7.617,17.301-3.647c2.488,2.029,8.792,2.776,16.958,2.005c7.148-0.676,15.203,0.042,17.9,1.595
		c2.698,1.552,16.249,3.096,30.113,3.43c30.966,0.744,42.685,2.152,44.81,5.385c3.759,5.721,18.7,10.602,32.251,10.544
		c22.279-0.095,23.787,0.203,23.787,4.694c0,2.527,1.481,3.638,3.721,2.793c2.047-0.773,4.428-0.71,5.294,0.146
		c2.819,2.772,17.52,3.341,17.52,0.679c0-1.423,1.197-2.588,2.655-2.588c1.461,0,2.653,3.313,2.653,7.367
		c0,8.577-12.546,17.996-31.323,23.511c-6.28,1.844-12.164,5.343-13.073,7.774c-0.91,2.434-6.447,11.167-12.306,19.408
		l-10.651,14.985l4.369,9.01c4.323,8.925,4.293,9.089-3.479,17.271c-4.312,4.545-7.842,10.488-7.842,13.208
		c0,3.143-1.864,4.946-5.114,4.946c-2.813,0-8.71,4.291-13.105,9.536c-7.225,8.625-9.208,9.521-20.76,9.384
		c-7.023-0.083-19.748,1.096-28.277,2.621c-12.186,2.178-16.113,4.082-18.34,8.889
		C-227.364,1204.514-228.615,1205.092-233.256,1202.086z M299.06,1187.787c-2.473-5.218-4.277-6.439-6.651-4.502
		c-4.007,3.272-7.411-3.394-3.63-7.113c1.541-1.515-0.029-4.761-4.126-8.55l-6.61-6.108l5.655-4.819
		c3.11-2.652,6.964-4.818,8.565-4.812c4.312,0.015,21.156,10.498,23.643,14.72c1.184,2.01,3.273,2.973,4.643,2.138
		c1.37-0.833,2.49-0.271,2.49,1.25c0,3.506-4.205,3.53-10.789,0.062c-6.131-3.227-6.354-1.967-1.346,7.556
		c3.978,7.569,1.607,17.29-2.585,10.613c-1.584-2.526-2.583-2.105-3.99,1.68C302.618,1194.495,302.15,1194.309,299.06,1187.787z
		 M152.572,1183.198c-1.824-2.876-5.715-5.242-8.644-5.267c-7.556-0.062-29.945-13.691-28.638-17.432
		c0.599-1.711,2.686-2.512,4.629-1.78c1.949,0.735,4.302,0.126,5.23-1.351c1.149-1.83,3.578-1.844,7.595-0.044
		c3.807,1.703,11.315,1.812,21.138,0.298c8.377-1.293,15.19-1.646,15.135-0.788c-0.052,0.86-1.735,4.481-3.743,8.048
		c-2.397,4.261-2.823,8-1.242,10.906C169.646,1186.106,158.854,1193.088,152.572,1183.198z M-282.256,1178.76
		c-6.435-0.982-6.799-1.826-6.053-14.086c0.435-7.173,1.365-13.957,2.067-15.071c1.799-2.864-7.349-10.047-11.19-8.787
		c-4.308,1.411-4.048-7.441,0.405-13.821c6.337-9.079,12.386-41.538,9.552-51.259c-3.38-11.594-3.334-11.816,2.777-13.388
		c3.045-0.784,5.313-0.083,5.32,1.649c0.006,1.661,4.184,3.229,9.288,3.489c5.101,0.257,9.276-0.625,9.276-1.957
		c0-1.335,2.855-2.426,6.345-2.426c8.666,0,11.801,11.529,5.113,18.797c-2.77,3.01-4.397,8.177-3.938,12.488
		c0.432,4.048-0.375,8.061-1.793,8.923c-1.419,0.861-1.934,3.986-1.146,6.94c1.053,3.961-0.079,5.76-4.302,6.845l-5.725,1.475
		l5.139,8.566c4.632,7.729,4.747,9.12,1.163,14.15c-3.042,4.274-3.254,6.43-0.91,9.21c2.355,2.791,2.034,5.169-1.391,10.308
		c-2.445,3.677-3.766,8.434-2.929,10.578c1.255,3.218-6.257,10.268-9.387,8.807C-275.033,1179.98-278.491,1179.334-282.256,1178.76z
		 M329.64,1162.263c-0.92-1.464-7.26-5.44-14.087-8.84c-9.189-4.571-15.971-5.999-26.074-5.494
		c-12.039,0.604-13.989-0.03-16.455-5.355c-2.42-5.229-2.011-6.189,3.041-7.152c5.356-1.022,5.397-1.146,0.441-1.47
		c-9.248-0.607-18.019-23.852-9.004-23.852c1.353,0,2.458-1.619,2.458-3.597s1.778-5.049,3.952-6.824
		c2.173-1.774,3.296-4.266,2.499-5.539c-1.245-1.979,4.141-3.455,9.883-2.708c0.955,0.124,3.189-1.498,4.968-3.606
		s6.671-3.833,10.873-3.833c4.196,0,7.634-1.175,7.634-2.611c0-1.435,2.91-2.61,6.462-2.61c3.557,0,9.729-1.222,13.725-2.716
		c5.377-2.013,9.724-1.786,16.76,0.867c5.223,1.971,13.307,3.334,17.961,3.029c5.403-0.354,9.003,0.835,9.961,3.285
		c2.51,6.446-0.83,8.329-9.837,5.557c-9.384-2.893-10.73-2.961-20.532-1.045c-3.647,0.711-9.019,1.744-11.94,2.29
		c-2.919,0.544-5.47,2.636-5.664,4.652c-0.194,2.011-0.496,4.836-0.665,6.272c-0.168,1.435-3.227,2.775-6.795,2.979
		c-4.712,0.27-6.75-1.158-7.452-5.224c-0.899-5.21-1.21-5.098-4.584,1.663c-2.771,5.542-2.89,7.969-0.508,10.31
		c1.709,1.686,3.111,5.177,3.111,7.763c0,2.587,1.793,4.699,3.981,4.699c2.193,0,3.984,1.245,3.984,2.763
		c0,1.521-1.195,2.038-2.652,1.152c-4.643-2.822-8.565,1.362-5.112,5.453c2.483,2.945,2.112,3.706-1.863,3.793
		c-3.696,0.084-2.887,1.253,3.16,4.568c13.702,7.521,18.896,12.042,20.863,18.169C334.064,1165.092,332.606,1166.98,329.64,1162.263
		z M176.361,1158.126c-1.958-1.925,2.75-14.711,6.187-16.803c1.44-0.877,0.19-8.196-2.98-17.429
		c-4.184-12.188-6.915-16.28-11.65-17.448c-3.684-0.909-6.852-4.171-7.849-8.078c-1.075-4.2-3.536-6.548-6.867-6.548
		c-2.861,0-7.071-2.814-9.361-6.247c-2.889-4.344-7.658-6.767-15.63-7.943c-9.892-1.456-14.254-4.504-31.727-22.17
		c-11.139-11.263-20.264-22.078-20.272-24.041c-0.009-1.963-1.191-7.73-2.629-12.822c-2.088-7.396-5.102-10.446-14.952-15.155
		l-12.338-5.896l-10.089,7.974c-11.064,8.749-13.392,9.631-12.39,4.714c0.365-1.795-1.584-3.271-4.331-3.277
		c-2.749-0.008-6.777-2.65-8.949-5.874c-2.901-4.302-3.081-5.86-0.673-5.86c2.392,0,2.19-1.64-0.75-6.055
		c-3.7-5.551-3.61-6.313,1.083-9.193c4.032-2.477,4.54-4.2,2.398-8.137c-3.994-7.344-3.678-7.729,7.901-9.552
		c9.583-1.508,11.89-3.511,10.931-9.488c-0.676-4.21,4.866-1.635,9.825,4.568c6.154,7.695,8.404,8.21,8.521,1.956
		c0.115-6.185,6.989-15.023,8.413-10.82c1.631,4.813,12.734,5.699,12.734,1.017c0-2.146,1.194-3.899,2.651-3.899
		c1.459,0,2.653-1.889,2.653-4.196c0-2.846,1.425-3.657,4.433-2.521c2.437,0.92,5.281,0.322,6.319-1.33
		c3.175-5.053,19.344-5.631,22.935-0.819c1.744,2.334,6.991,5.019,11.667,5.958c7.358,1.48,8.624,2.939,9.455,10.916
		c0.871,8.352,0.154,9.503-7.686,12.356c-14.52,5.289-15.787,6.703-12.83,14.356c1.789,4.625,1.771,7.406-0.052,8.514
		c-1.605,0.976-1.927,5.001-0.785,9.883c1.055,4.529,1.796,10.292,1.644,12.805c-0.15,2.51,0.847,4.567,2.217,4.567
		c1.368,0,2.488-1.186,2.488-2.634c0-1.447,4.205,0.02,9.344,3.264c7.212,4.55,10.276,9.005,13.43,19.511
		c5.546,18.475,20.306,30.566,34.18,28.006c9.422-1.737,11.924,0.536,6.482,5.891c-2.111,2.076,1.712,5.446,13.934,12.275
		c24.42,13.646,36.251,23.92,32.191,27.95c-2.554,2.534-3.595,2.274-4.968-1.239c-0.958-2.444-5.368-6.295-9.811-8.557
		c-7.733-3.931-8.278-3.847-13.022,2.056c-10.305,12.822-10.665,14.82-3.518,19.425c8.017,5.168,8.725,13.159,1.373,15.454
		c-2.919,0.908-5.304,3.378-5.304,5.486c0,4.461-7.684,16.701-10.482,16.701C178.816,1159.7,177.24,1158.992,176.361,1158.126z
		 M40.282,1132.525c-4.431-3.188-4.765-4.833-2.29-11.283c2.136-5.574,2.062-10.336-0.292-18.178
		c-3.163-10.538-3.119-10.657,5.256-14.583c7.985-3.746,8.635-3.658,11.992,1.626c1.949,3.074,3.949,9.005,4.444,13.184
		c1.135,9.56-3.853,28.335-7.012,26.414c-1.301-0.793-3.391,0.355-4.641,2.558C45.758,1135.747,44.807,1135.78,40.282,1132.525z
		 M256.749,1114.757c-0.032-2.462-2.55-5.787-5.594-7.391c-3.044-1.603-4.878-3.561-4.074-4.354
		c0.804-0.789,0.349-3.478-1.007-5.974c-1.358-2.493-1.715-5.273-0.798-6.178c2.73-2.684,2.911-26.068,0.241-31.19
		c-3.151-6.05,1.915-12.535,8.049-10.303c8.818,3.214,13.417,11.05,11.897,20.271c-1.051,6.352,0.171,11.38,4.393,18.102
		c3.212,5.112,4.631,9.301,3.151,9.301c-1.479,0-3.389,2.058-4.241,4.57c-0.852,2.51-3.893,7.505-6.756,11.095
		C257.883,1117.887,256.797,1118.31,256.749,1114.757z M383.026,1094.705c-5.159-1.959-8.371-14.743-4.32-17.204
		c1.219-0.742,1.599-3.676,0.842-6.521c-1.732-6.517,10.953-12.38,16.679-7.708c1.948,1.59,4.784,2.137,6.299,1.215
		c1.518-0.923,4.03,1.071,5.592,4.431c1.556,3.359,6.636,7.83,11.29,9.935l8.461,3.829l-14.19,0.798
		c-10.882,0.612-15.517,2.234-19.902,6.964C389.727,1094.816,386.588,1096.059,383.026,1094.705z M271.433,1085.065
		c-2.269-2.234-4.126-6.901-4.126-10.369c0-6.904,7.603-17.34,11.087-15.22c1.201,0.729,2.182,0.22,2.182-1.132
		c0-4.427,20.451-3.043,24.58,1.664c8.888,10.121,5.96,21.37-5.565,21.37c-2.803,0-6.357,1.5-7.904,3.334
		C287.587,1089.567,276.212,1089.77,271.433,1085.065z M346.829,1074.034c-6.787-3.234-9.752-3.32-18.315-0.54
		c-10.954,3.556-16.719,2.088-14.471-3.681c0.766-1.962-1.027-5.781-3.981-8.49c-4.892-4.484-5.435-8.23-3.251-22.369
		c0.166-1.081,2.092-1.958,4.283-1.958c2.191,0,3.984-1.766,3.984-3.916c0-2.154-1.164-3.919-2.585-3.919
		c-1.425,0-4.457-3.559-6.747-7.908c-3.595-6.841-3.647-8.413-0.383-11.624c4.21-4.144,7.399-2.652,5.385,2.516
		c-1.488,3.809,9.727,6.223,34.849,7.502c12.108,0.617,17.613-0.341,22.995-3.995c11.669-7.926,22.038-8.702,32.795-2.461
		c5.24,3.043,11.252,5.533,13.358,5.533c5.655,0,4.651,4.4-1.357,5.947c-2.907,0.747-6.021,4.601-7.086,8.76
		c-1.039,4.086-3.485,8.997-5.426,10.907c-3.955,3.889-4.849,9.433-1.158,7.189c3.436-2.09,6.256,6.745,3.134,9.813
		c-1.738,1.707-3.914,1.539-6.404-0.492c-5.109-4.176-17.743,0.618-19.554,7.421
		C374.567,1077.047,359.298,1079.974,346.829,1074.034z M44.986,1070.283c-0.155-1.795-1.013-7.012-1.904-11.588
		c-1.329-6.804-0.567-8.879,4.157-11.364c5.903-3.108,10.271-0.204,10.371,6.897C57.768,1065.401,45.868,1080.533,44.986,1070.283z
		 M267.307,1057.694c0-3.926-5.867-9.25-12.462-11.306c-4.106-1.281-6.97-0.011-10.814,4.798c-4.904,6.132-5.484,6.262-9.242,2.051
		c-5.403-6.05-8.421-16.241-4.814-16.241c1.555,0,2.832-1.831,2.832-4.07c0-2.238,1.201-3.34,2.672-2.444
		c1.468,0.894,3.389-0.215,4.266-2.456c0.873-2.244,3.252-4.081,5.287-4.081c4.445,0,4.883-4.193,0.702-6.735
		c-2.031-1.235-1.558-2.611,1.483-4.284c4.088-2.25,3.99-2.881-1.144-7.258c-4.796-4.09-5.133-5.562-2.304-10.017
		c2.667-4.205,2.632-6.027-0.168-9.351c-2.327-2.758-2.495-4.128-0.505-4.128c1.64,0,2.98-1.175,2.98-2.611
		c0-4.813-5.789-2.673-7.208,2.667c-1.088,4.097-2.205,4.62-4.994,2.344c-3.308-2.699-15.141-4.165-46.184-5.719
		c-10.459-0.525-12.043,0.104-12.763,5.066c-0.5,3.45,3.923,12.342,11.311,22.743l12.133,17.076l-8.609-0.55
		c-8.962-0.573-25.243-14.728-20.358-17.699c1.367-0.832,0.071-3.661-2.881-6.292c-2.954-2.629-5.371-6.901-5.371-9.497
		c0-2.593-2.326-6.847-5.167-9.452c-3.292-3.013-4.375-6-2.987-8.213c1.526-2.43,2.728-2.607,3.999-0.585
		c2.993,4.765,11.638,3.265,13.443-2.333c0.927-2.871,2.941-5.221,4.47-5.221c1.531,0,2.156-2.365,1.39-5.255
		c-1.515-5.689,4.337-10.223,11.672-9.052c2.343,0.374,8.935,3.721,14.641,7.437c12.029,7.83,27.542,11.797,27.542,7.042
		c0-1.703,1.228-2.346,2.725-1.435c1.497,0.908,2.55,3.036,2.338,4.723c-0.786,6.265,0.328,9.594,3.207,9.594
		c1.63,0,2.374-2.056,1.648-4.568c-0.72-2.512-1.755-6.176-2.298-8.141c-0.543-1.963,0.804-3.995,2.994-4.522
		c17.143-4.103,18.182-4.046,23.625,1.312c3.061,3.01,5.565,7.202,5.565,9.311c0,2.107,2.687,5.337,5.971,7.179
		c3.285,1.841,5.975,5.568,5.975,8.284c0,2.714,2.385,6.239,5.306,7.83c2.92,1.593,6.292,4.07,7.502,5.506
		c1.421,1.694,2.667,1.462,3.54-0.65c0.74-1.796,2.185-3.265,3.212-3.265c2.977,0,3.016,11.19,0.052,14.703
		c-2.841,3.37,2.817,17.238,8.429,20.646c1.799,1.094,0.731,3.217-2.865,5.693c-3.62,2.494-5.248,5.758-4.425,8.861
		c1.613,6.062-1.1,7.846-12.164,8.004c-4.725,0.068-11.235,1.752-14.466,3.742C268.958,1061.225,267.307,1061.381,267.307,1057.694z
		 M-87.717,1048.812c-3.143-5.139-16.875-8.392-32.231-7.634c-14.803,0.73-30.986-4.771-28.006-9.515
		c0.863-1.376-0.196-2.503-2.354-2.503c-3.405,0-3.449-1.297-0.329-9.79c1.979-5.386,4.651-18.601,5.937-29.372
		c2.089-17.488,1.349-23.644,2.413-28.871c1.277-6.282,0.399-8.016-5.385-10.61c-7.714-3.458-15.968-14.221-13.686-17.854
		c0.814-1.295-1.056-4.107-4.158-6.242c-3.102-2.138-4.843-5.157-3.868-6.708c1.053-1.678-0.486-2.817-3.801-2.817
		c-3.062,0-10.34-2.395-16.171-5.32c-5.831-2.927-11.802-4.589-13.271-3.697c-1.667,1.015-2.049-0.815-1.016-4.87
		c1.207-4.72,0.336-7.218-3.188-9.16c-6.379-3.508-3.141-6.345,7.649-6.694c4.78-0.153,10.168-2.043,11.976-4.197
		c2.86-3.411,3.926-3.109,8.261,2.333c2.967,3.726,6.266,5.465,8.171,4.309c1.76-1.069,7.089-1.945,11.849-1.945h8.648
		l-1.833-10.835c-1.013-5.958-2.775-13.026-3.925-15.703c-1.851-4.325-1.442-4.537,3.625-1.869c3.141,1.652,5.71,3.993,5.71,5.191
		c0,2.82,19.571,5.925,24.832,3.938c2.214-0.835,3.373-3.193,2.574-5.238c-0.985-2.521,2.4-5.396,10.527-8.933
		c11.85-5.156,17.796-13.915,17.796-26.212c0-2.703,3.154-5.66,7.711-7.22c6.704-2.3,7.891-1.962,9.103,2.59
		c1.042,3.919,2.772,4.799,6.884,3.519c3.698-1.155,5.494-0.57,5.494,1.796c0,4.652,8.696,11.828,12.734,10.502
		c1.754-0.575,3.34,0.227,3.521,1.782c0.183,1.555,0.511,4.297,0.726,6.092c0.219,1.795,2.591,3.078,5.275,2.853
		c2.684-0.224,8.326,2.614,12.541,6.305c4.215,3.694,10.664,7.032,14.331,7.417c3.667,0.385,13.147,3.714,21.067,7.4
		c7.92,3.683,15.667,6.701,17.219,6.701c3.678,0,3.575,4.174-0.276,11.253c-1.703,3.125-4.47,10.981-6.147,17.45
		c-1.804,6.958-4.605,11.81-6.857,11.883c-2.093,0.064-3.557,1.393-3.25,2.949s-1.783,4.921-4.644,7.466
		c-2.861,2.548-5.201,6.086-5.201,7.863s-1.867,3.937-4.149,4.797c-2.282,0.861-3.375,2.805-2.424,4.311
		c0.949,1.506,0.127,4.728-1.825,7.152c-3.021,3.755-2.401,3.688,4.194-0.463c7.492-4.712,7.854-4.715,11.29-0.092
		c2.249,3.021,2.623,5.682,1.021,7.26c-1.602,1.576-1.113,5.18,1.332,9.831c3.576,6.805,3.456,7.556-1.635,10.237
		c-4.37,2.301-4.856,3.648-2.372,6.594c1.716,2.032,2.457,5.403,1.644,7.482c-2.128,5.458,8.078,17.296,13.23,15.35
		c3.547-1.338,3.721-0.717,1.136,4.036c-1.68,3.087-4.167,5.614-5.524,5.614s-6.239,3.624-10.844,8.055
		c-4.931,4.74-10.153,7.521-12.697,6.753c-2.378-0.717-8.205-2.578-12.947-4.138c-22.621-7.435-23.338-7.468-34.068-1.579
		c-6.826,3.749-10.688,7.869-11.274,12.013c-0.489,3.471-1.829,7.277-2.983,8.462C-73.075,1051.824-85.651,1052.193-87.717,1048.812
		z M216.189,1040.496c-5.458-3.816-9.921-8.981-9.921-11.47c0-2.489-1.532-5.104-3.403-5.811
		c-5.21-1.963-25.792-32.701-25.792-38.517c0-6.353,2.315-6.545,6.922-0.571c3.099,4.016,3.536,4.057,3.61,0.359
		c0.062-3.083,2.038-3.94,7.386-3.202c4.012,0.555,13.133,1.556,20.265,2.228s14.581,2.537,16.556,4.146
		c1.969,1.61,5.393,2.246,7.598,1.411c2.461-0.928,4.013-0.031,4.013,2.318c0,2.11-1.193,3.835-2.652,3.835
		c-1.457,0-2.655,2.351-2.655,5.222c0,2.875,1.158,5.225,2.571,5.225s1.877,1.777,1.027,3.949c-0.846,2.172-0.067,5.697,1.738,7.83
		c2.719,3.227,2.333,3.882-2.275,3.882c-4.085,0-5.104,1.145-3.853,4.346c1.059,2.714,0.638,3.702-1.123,2.633
		c-3.79-2.307-11.706,9.979-9.718,15.074C228.605,1048.821,227.734,1048.576,216.189,1040.496z M327.765,1015.702
		c-1.875-1.168-6.16-2.142-9.529-2.163c-3.514-0.023-5.412-1.186-4.442-2.724c0.929-1.476-1.091-4.962-4.489-7.746
		c-3.528-2.892-4.683-5.1-2.699-5.147c1.912-0.048,2.786-1.182,1.944-2.522c-0.839-1.339-5.046-2.336-9.352-2.216
		c-9.111,0.256-16.824-5.058-14.816-10.206c0.824-2.108-1.306-4.788-5.188-6.527c-3.619-1.622-6.581-5.054-6.581-7.623
		c0-2.57-2.089-5.975-4.646-7.567c-2.556-1.589-3.45-3.43-1.994-4.085c11.97-5.386,15.797-8.513,17.346-14.166
		c1.898-6.937,18.483-33.925,18.483-30.079c0,1.25,2.751-0.271,6.105-3.374c4.921-4.549,7.623-5.218,13.934-3.444
		c4.301,1.205,10.748,1.753,14.319,1.208c3.703-0.562,7.388,0.581,8.569,2.654c1.758,3.095,3.963,3.045,14.734-0.335
		c6.964-2.188,14.555-5.559,16.858-7.495c7.026-5.903,9.3-4.229,20.941,15.406c9.334,15.747,11.368,21.666,12.1,35.211
		c0.479,8.956,1.637,18.649,2.568,21.539c1.874,5.801,11.615,7.152,16.554,2.298c3.29-3.233,11.325-1.326,11.325,2.691
		c0,4.244-8.938,11.756-10.058,8.45c-0.551-1.628-1.909-2.962-3.012-2.962c-2.449,0-8.162,18.037-8.162,25.76
		c0,3.83-1.657,5.571-5.308,5.571c-2.919,0-5.307-1.082-5.307-2.407c0-3.828-18.188-8.697-25.63-6.859
		c-3.724,0.92-9.849,3.656-13.609,6.08C361.433,1017.62,333.839,1019.493,327.765,1015.702z M515.248,998.751
		c-1.567-0.575-2.356-4.357-1.75-8.406c0.902-6.046-0.458-8.328-7.62-12.788l-8.713-5.429l9.892-4.642
		c13.521-6.344,11.932-12.306-3.578-13.415c-6.558-0.466-13.681-1.451-15.827-2.181c-3.434-1.165-3.434-1.615-0.016-3.694
		c3.308-2.009,3.127-2.92-1.189-6.024c-2.798-2.012-6.973-3.306-9.276-2.872c-15.928,2.99-18.785,4.205-18.785,7.976
		c0,8.094-23.507,25.999-37.725,28.739c-5.312,1.021-4.304-2.282,5.873-19.278c6.305-10.524,10.617-14.04,10.617-8.654
		c0,1.353,2.55,1.977,5.664,1.389c6.595-1.249,10.042-3.848,5.108-3.848c-1.86,0-2.728-1.678-1.929-3.726
		c0.797-2.052-0.269-5.13-2.372-6.847s-3.823-5.915-3.823-9.329c0-3.962-1.543-6.206-4.268-6.206c-3.13,0-3.861-1.604-2.735-6.014
		c1.01-3.949-0.043-7.312-3.066-9.792c-14.172-11.625-43.948-15.568-51.186-6.778c-6.05,7.349-30.871,15.238-32.753,10.41
		c-0.781-2.002-4.559-3.283-8.75-2.964c-12.096,0.914-29.169-3.196-33.695-8.119c-5.594-6.083-0.94-21.736,5.718-19.221
		c3.396,1.282,3.836,0.377,2.279-4.729c-1.056-3.475-2.141-7.576-2.417-9.116c-0.605-3.438,18.371-24.609,22.062-24.609
		c1.459,0,2.842-1.47,3.062-3.264c0.224-1.795,0.587-5.026,0.815-7.179c0.224-2.155-1.528-6.854-3.894-10.443
		c-4.294-6.51-4.277-15.665,0.029-15.665c1.248,0,4.164-1.864,6.478-4.142c6.916-6.805,50.127-5.025,54.935,2.261
		c0.938,1.422,7.106,2.722,13.711,2.885c6.603,0.163,12.894,1.17,13.973,2.234c1.084,1.066,3.496,0.692,5.359-0.834
		c2.398-1.957,5.025-1.909,8.969,0.167c3.064,1.615,7.776,2.249,10.473,1.409c3.043-0.953,5.478-0.022,6.45,2.463
		c2.782,7.139,7.033,4.222,7.033-4.824c0-11.353,5.203-15.383,20.5-15.891c6.784-0.225,12.771-1.683,13.294-3.239
		c0.526-1.554,3.154-2.259,5.84-1.571c2.684,0.688,5.586,0.136,6.444-1.232c3.018-4.801,15.126-0.001,19.11,7.581
		c2.17,4.128,2.931,7.51,1.686,7.51c-1.244,0-1.738,3.523-1.094,7.83c1.1,7.386,4.007,9.179,13.052,8.056
		c3.714-0.463,12.889,12.233,10.524,14.563c-0.877,0.862-0.369,3.816,1.129,6.571c1.851,3.402,4.372,4.487,7.881,3.394
		c3.052-0.956,6.851,0.063,9.322,2.495c3.73,3.668,4.779,3.687,9.875,0.179c8.118-5.595,10.715-4.953,16.062,3.952
		c2.603,4.333,5.823,7.212,7.158,6.402c3.05-1.854,27.081,6.418,34.382,11.834c5.258,3.9,5.287,4.251,0.737,9.204
		c-4.756,5.178-6.138,13.354-3.082,18.202c1.682,2.664,1.146,9.459-1.231,15.546c-0.825,2.112-3.982,2.888-8.385,2.062
		c-5.524-1.039-8.758,0.495-14.839,7.044c-4.276,4.609-7.185,9.317-6.465,10.463c0.723,1.148-4.071,3.571-10.648,5.383
		c-6.583,1.815-12.603,4.309-13.38,5.548c-0.779,1.239-3.178,2.252-5.324,2.252c-2.15,0-8.349,1.95-13.777,4.333
		c-5.425,2.384-10.666,4.438-11.645,4.569c-4.302,0.571-15.472,12.353-15.472,16.318c0,2.403,0.731,3.65,1.622,2.771
		c0.895-0.879,4.614,1.897,8.268,6.17c4.919,5.756,8.112,7.356,12.312,6.175c3.116-0.876,7.756-2.166,10.307-2.866
		c2.893-0.794,4.646,0.159,4.646,2.538c0,4.947-6.7,7.394-14.783,5.397c-4.484-1.107-6.89-0.325-8.033,2.613
		c-0.899,2.307-3.455,4.192-5.681,4.192c-2.229,0-7.77,2.201-12.323,4.896C521.822,997.59,516.817,999.323,515.248,998.751z
		 M139.648,964.548c-6.823-12.032-5.127-17.488,5.581-17.98c9.571-0.441,27.19-4.141,34.896-7.328
		c8.139-3.37,7.985,3.773-0.18,8.359c-5.815,3.267-7.663,5.882-6.572,9.297c1.065,3.315-0.096,5.17-3.84,6.132
		c-3.234,0.834-4.795,2.832-3.932,5.041c1.689,4.323-0.317,4.617-7.115,1.037c-3.324-1.749-5.518-1.749-6.617,0
		C148.926,973.792,143.807,971.881,139.648,964.548z M412.882,964.701c-0.215-2.597-0.638-11.008-0.937-18.69
		c-0.302-7.683-1.625-14.732-2.934-15.665c-2.47-1.76-4.35-4.604-15.355-23.232l-6.553-11.091l6.497-1.604
		c6.793-1.679,22.319,3.23,22.319,7.054c0,1.214,1.791,1.533,3.981,0.709c2.188-0.827,3.98-0.201,3.98,1.388
		c0,1.59,1.791,2.89,3.984,2.89c4.695,0,5.15,3.026,1.06,7.05c-2.121,2.089-1.469,4.299,2.394,8.097
		c2.919,2.873,6.102,7.69,7.077,10.704c0.972,3.011,2.844,5.479,4.161,5.479c1.314,0,1.706,1.757,0.87,3.898
		c-1.01,2.588-3.581,3.389-7.651,2.384c-5.261-1.3-6.874,0.139-11.363,10.121C418.529,967.275,413.471,971.887,412.882,964.701z
		 M209.544,958.379c-16.24-7.907-22.375-16.469-20.188-28.177c0.959-5.165,2.78-9.778,4.039-10.26
		c1.261-0.482,1.616-1.95,0.791-3.264c-0.828-1.312,0.231-2.385,2.354-2.385c2.12,0,4.604-1.923,5.519-4.271
		c1.516-3.891,2.076-3.905,6.279-0.164c5.727,5.099,27.122,3.176,27.122-2.436c0-2.073,2.794-3.572,6.639-3.572
		c3.65,0,6.633-1.064,6.633-2.366c0-1.301,2.249-1.787,5-1.084c3.07,0.791,6.416-0.711,8.688-3.899
		c2.559-3.595,6.723-5.183,13.58-5.183c5.438,0,9.889,1.058,9.889,2.35c0,1.291,2.803,2.347,6.23,2.347
		c3.424,0,9.039,2.398,12.473,5.334c6.23,5.312,6.233,5.331,0.627,6.773c-5.861,1.509-24.638,28.774-24.638,35.781
		c0,5.46-3.261,7.068-19.392,9.562c-21.338,3.295-29.486,5.31-32.226,7.978C225.285,965.016,222.163,964.524,209.544,958.379z
		 M9.599,952.783c-2.291-5.439-4.562-7.213-8.084-6.303c-5.98,1.539-9.101-2.33-3.559-4.424c2.181-0.824,3.965-3.074,3.965-5.007
		c0-1.931,3.383-6.696,7.515-10.594c7.237-6.82,13.182-8.573,36.39-10.739c10.395-0.971,10.749-0.742,11.334,7.271
		c0.641,8.758,7.345,15.776,13.024,13.635c4.896-1.847,4.181,0.39-2.092,6.561c-4.406,4.339-6.246,4.778-9.352,2.242
		c-2.13-1.736-4.138-2.697-4.465-2.136c-0.333,0.562-1.882,3.307-3.443,6.094c-4.08,7.269-9.216,8.115-10.895,1.797
		c-1.173-4.416-2.383-4.938-6.459-2.792c-2.759,1.452-5.015,4.228-5.015,6.164c0,1.944-3.527,4.038-7.837,4.66
		C13.98,960.172,12.298,959.189,9.599,952.783z M129.306,942.115c-10.847-2.294-15.274-4.6-17.236-8.965
		c-1.689-3.77-4.07-5.308-6.635-4.298c-2.199,0.869-6.661,1.896-9.915,2.282c-3.252,0.386-7.605,2.078-9.669,3.767
		c-2.915,2.381-4.628,2.205-7.658-0.774c-2.517-2.477-4.815-2.939-6.469-1.311c-4.202,4.132-11.422-0.331-11.422-7.06
		c0-6.712,1.754-7.553,7.834-3.77c2.12,1.32,5.105,1.613,6.635,0.653c1.531-0.961,5.766-1.933,9.416-2.156
		c3.648-0.227,11.871-1.896,18.273-3.711c8.767-2.485,12.828-2.569,16.464-0.338c6.366,3.914,8.454,0.087,4.933-9.033
		c-2.357-6.097-2.026-7.887,1.969-10.711c2.641-1.866,6.929-5.152,9.531-7.306c3.434-2.835,6.083-3.198,9.644-1.325
		c3.82,2.011,6.456,1.178,11.863-3.752c6.569-5.986,7.514-6.142,17.218-2.772c5.647,1.958,12.434,3.374,15.079,3.144
		c3.443-0.298,5.459,2.184,7.083,8.72c3.75,15.119,3.601,16.551-1.924,18.096c-2.919,0.818-5.426,2.952-5.573,4.749
		c-0.149,1.794-0.444,6.16-0.663,9.697c-0.548,8.868-8.632,12.751-37.553,18.042C146.887,944.656,137.332,943.813,129.306,942.115z
		 M64.119,916.756c-4.29-2.791-9.288-4.523-11.113-3.854c-1.824,0.672-3.315,0.203-3.315-1.047c0-2.538-10.663-2.01-22.187,1.097
		c-7.491,2.02-7.563,1.931-5.647-6.795c1.068-4.858,4.125-13.083,6.793-18.269l4.85-9.43l-16.454-6.366
		c-14.148-5.478-16.451-7.295-16.451-12.998c0-3.646-1.465-8.373-3.254-10.504c-2.44-2.905-2.496-4.615-0.221-6.854
		c2.275-2.241,1.891-5.479-1.537-12.961c-3.458-7.546-3.932-11.632-1.945-16.777c1.448-3.74,2.012-9.124,1.255-11.965
		c-1.021-3.855,0.255-5.565,5.03-6.745c8.136-2.013,14.53-14.2,8.619-16.435c-5.036-1.898-5.171-6.159-0.194-6.159
		c4.735,0,7.826-13.159,5.518-23.497c-1.689-7.563-1.423-7.83,7.75-7.83c5.228,0,9.201,0.88,8.835,1.957
		c-0.757,2.24,1.548,3.262,7.35,3.262c2.941,0,3.594-1.711,2.413-6.345c-1.439-5.632-0.921-6.168,4.593-4.769
		c3.417,0.867,7.405,3.013,8.866,4.775c1.459,1.76,5.639,3.961,9.288,4.893c6.056,1.547,6.183,1.419,1.458-1.466
		c-6.652-4.054-18.912-18.402-18.045-21.116c0.366-1.146-0.828-2.117-2.653-2.16c-1.85-0.044-1.268-1.252,1.307-2.73
		c4.331-2.481,4.347-3.073,0.226-9.255l-4.399-6.605l10.39,1.82c12.734,2.233,17.173,5.682,11.695,9.09
		c-3.564,2.217-1.876,3.66,3.34,2.851c1.093-0.17,1.991,0.666,1.991,1.858c0,1.191,4.177,2.03,9.288,1.863
		c9.39-0.307,12.492,2.756,5.474,5.408c-2.098,0.788-3.278,2.811-2.622,4.486c1.331,3.406,14.396,4.976,14.396,1.729
		c0-2.296,19.84-13.042,24.076-13.042c1.477,0,5.203,2.312,8.283,5.132c3.079,2.821,6.664,4.486,7.966,3.692
		c8.236-5.009,17.304,19.146,11.408,30.368c-3.369,6.407-3.271,7.607,0.925,11.346c2.581,2.298,6.056,9.784,7.721,16.632
		c6.574,27.044,6.611,28.789,0.832,34.477c-3.015,2.965-7.456,5.394-9.87,5.394c-2.414,0-12.069,4.227-21.455,9.387
		c-15.696,8.634-16.927,9.944-15.345,16.317c0.947,3.808,7.914,13.179,15.484,20.819l13.766,13.894l-10.093,8.415
		c-9.239,7.703-9.86,9.031-7.299,15.649c3.73,9.651,3.601,10.044-2.153,6.507c-3.791-2.325-7.669-2.265-16.586,0.263
		c-6.402,1.816-14.625,3.486-18.273,3.71c-3.65,0.225-7.904,1.207-9.455,2.182C73.187,921.028,68.408,919.544,64.119,916.756z
		 M205.452,905.003c-9.603-8.849-9.172-20.285,0.815-21.629c7.455-1.001,15.921-7.459,15.921-12.149
		c0-1.701,2.986-4.431,6.636-6.065c4.936-2.213,6.633-2.216,6.633-0.015c0,1.715,2.02,1.16,4.814-1.329
		c3.714-3.305,5.537-3.573,7.962-1.187c1.732,1.703,3.148,4.623,3.148,6.49c0,4.457,5.354,4.182,11.787-0.604
		c6.778-5.043,20.335-4.864,31.576,0.407l9.039,4.24l-4.303,10.092c-4.117,9.639-8.963,12.79-12.074,7.842
		c-0.795-1.267-6.238-2.368-12.097-2.445c-8.078-0.108-11.346,1.135-13.53,5.159c-1.883,3.456-4.66,4.849-7.965,3.996
		c-2.792-0.716-5.745-0.239-6.563,1.062c-0.818,1.302-4.402,2.366-7.965,2.366c-3.987,0-6.474,1.505-6.474,3.916
		c0,2.153-2.089,3.932-4.646,3.95c-2.557,0.021-7.031,0.65-9.953,1.4C214.77,911.388,210.278,909.449,205.452,905.003z
		 M130.756,872.166c-9.445-9.136-17.857-19.554-18.694-23.144c-1.338-5.73,0.174-7.458,12.434-14.185
		c17.864-9.805,41.963-15.766,41.963-10.38c0,2.022,0.895,3.489,1.991,3.251c4.021-0.865,16.51,3.657,15.319,5.549
		c-0.673,1.074,1.543,4.51,4.928,7.642c5.454,5.042,6.539,5.232,9.525,1.692c2.985-3.539,4.927-3.178,16.984,3.156
		c19.464,10.225,21.539,13.724,10.959,18.468c-3.647,1.635-6.633,4.56-6.633,6.506c0,4.458-11.792,10.84-15.672,8.482
		c-1.599-0.972-2.908-0.539-2.908,0.959c0,3.331-19.312,1.83-30.439-2.366c-6.179-2.328-8.474-2.232-10.616,0.447
		C150.517,889.976,148.785,889.614,130.756,872.166z M297.826,868.216c-12.373-7.056-26.823-7.874-35.342-2.004
		c-5.673,3.909-6.306,3.76-11.479-2.708c-4.213-5.272-6.291-6.178-9.033-3.935c-2.733,2.23-4.367,1.591-7.028-2.745
		c-4.3-7.011-40.79-25.844-38.45-19.846c2.458,6.301-2.266,7.269-7.534,1.542c-3.482-3.784-3.788-5.162-1.147-5.162
		c5.683,0-0.823-5.152-8.277-6.558c-3.542-0.665-7.765-2.99-9.385-5.161c-1.619-2.17-4.066-3.946-5.438-3.946
		c-1.375,0-2.497-3.914-2.497-8.695c0-13.864-6.768-37.844-11.991-42.496c-4.308-3.835-4.412-4.998-1.01-11.474
		c2.711-5.157,3.116-9.521,1.413-15.353c-2.713-9.301-1.966-9.933,20.273-17.068c7.547-2.425,14.994-5.908,16.541-7.742
		c4.066-4.824,30.59-13.17,35.71-11.238c2.388,0.901,4.35,3.915,4.35,6.69c0,5.973,14.119,11.798,20.828,8.593
		c6.087-2.907,66.239-2.02,69.044,1.019c2.53,2.743,10.977,34.964,10.977,41.874c0,2.412-3.218,7.32-7.15,10.907
		c-7.091,6.468-7.109,6.555-1.831,10.759c3.976,3.166,5.25,7.149,5.032,15.713c-0.17,6.692,1.889,15.808,4.941,21.88
		c4.535,9.02,4.715,10.795,1.355,13.313c-2.13,1.595-8.986,8.408-15.236,15.139c-9.973,10.741-10.989,12.921-8.308,17.845
		C311.344,875.077,310.066,875.195,297.826,868.216z M-24.337,855.845c-3.074-3.223-5.593-8.018-5.593-10.662
		c0-4.487-0.317-4.521-4.853-0.48c-5.152,4.586-8.621,5.598-8.103,2.362c0.972-6.056-1.122-9.033-8.01-11.396
		c-4.235-1.454-8.329-5.022-9.102-7.933c-1.056-3.975-2.775-4.86-6.903-3.574c-4.186,1.31-5.494,0.582-5.494-3.057
		c0-6.776,9.429-12.054,15.67-8.768c3.614,1.901,7.665,1.275,15.196-2.344c5.858-2.817,10.674-3.835,11.21-2.368
		c0.521,1.413,3.804,3.641,7.299,4.947c4.39,1.643,6.356,4.421,6.356,8.969c0,4.053,1.5,6.595,3.888,6.595
		c5.384,0,9.615,8.479,6.584,13.193c-1.336,2.073-2.482,2.602-2.549,1.165s-1.352-0.531-2.855,2.011
		c-1.508,2.542-2.03,6.809-1.168,9.482C-10.378,861.375-17.902,862.582-24.337,855.845z M-10.579,854.238
		c-0.306-4.305,0.443-7.83,1.666-7.83c4.141,0,8.282,7.15,6.615,11.421C-5.017,864.793-9.981,862.641-10.579,854.238z
		 M-216.825,834.011c13.939-18.289,17.965-21.45,27.373-21.493c8.872-0.045,13.218-3.331,19.061-14.404
		c2.379-4.503,2.279-4.652-0.708-1.082c-1.905,2.277-6.249,5.604-9.652,7.389c-5.216,2.733-6.697,2.559-9.426-1.112
		c-1.78-2.396-4.969-4.065-7.083-3.711c-2.114,0.355-5.949-0.259-8.52-1.364c-2.75-1.181-6.307-0.681-8.628,1.21
		c-2.17,1.773-4.035,2.786-4.145,2.253c-2.346-11.562-2.13-12.056,6.241-14.382c5.858-1.625,10.014-5.23,13.188-11.453
		c2.725-5.336,3.539-9.438,1.975-9.952c-1.464-0.481-1.986-1.95-1.162-3.263c0.829-1.313-0.402-2.389-2.73-2.389
		c-3.408,0-3.678-1.016-1.39-5.221c3.064-5.639,16.919-7.36,19.983-2.484c1.18,1.878,2.871,1.796,5.39-0.26
		c3.11-2.54,3.061-3.597-0.331-6.931c-2.44-2.399-3.099-5.1-1.693-6.92c3.881-5.025,2.33-18.65-2.121-18.65
		c-8.389,0-10.057-12.3-2.654-19.585c5.307-5.22,5.307-5.22-1.331-5.22c-3.648,0-6.634,1.049-6.634,2.33
		c0,3.851-8.384,5.791-12.058,2.797c-2.55-2.083-3.648-1.644-4.304,1.727c-0.839,4.283-1.129,4.281-5.501-0.023
		c-4.386-4.311-4.353-5.044,0.644-14.682c3.379-6.516,4.278-10.739,2.517-11.811c-1.507-0.916-1.958-4.096-1.001-7.063
		c1.323-4.102,0.791-5.037-2.223-3.9c-2.181,0.823-5.304,0.178-6.941-1.433c-2.201-2.165-3.026-1.941-3.163,0.857
		c-0.113,2.291-1.026,1.725-2.312-1.437c-1.396-3.438-0.391-8.788,2.952-15.666l5.077-10.441l-6.488,7.556
		c-4.181,4.872-7.994,6.988-10.728,5.957c-5.675-2.14-5.404-6.935,0.405-7.191c2.555-0.115,3.208-0.781,1.456-1.481
		c-2.362-0.944-2.02-3.767,1.327-10.89c2.487-5.289,5.713-10.479,7.17-11.533c1.502-1.084,0.633-1.936-1.99-1.958
		c-6.929-0.06-6.4-14.803,0.609-16.993c2.89-0.901,5.033-2.449,4.764-3.439c-0.268-0.989,0.946-5.911,2.703-10.936l3.189-9.138
		l17.256-0.242c20.159-0.282,21.922,2.646,7.918,13.156c-5.136,3.854-8.668,8.072-7.852,9.375c0.817,1.302-0.492,5.336-2.909,8.968
		c-4.934,7.407-2.954,8.186,6.829,2.684c7.16-4.026,33.315-5.307,35.557-1.739c2.722,4.333-11.276,33.051-18.143,37.222
		c-9.791,5.947-11.717,8.527-4.807,6.438c10.083-3.048,6.608,2.496-3.909,6.234c-9.52,3.387-9.652,3.598-3.595,5.802
		c3.458,1.258,8.299,1.658,10.761,0.89c6.204-1.938,21.813,9.043,24.094,16.95c1.036,3.589,3.223,11.38,4.859,17.311
		c2.268,8.206,4.901,11.564,11.032,14.064c11.515,4.692,13.792,10.357,7.327,18.215l-5.328,6.473l8.03,3.224
		c9.946,3.992,13.178,12.437,7.231,18.901c-4.02,4.37-3.993,4.84,0.373,6.488c2.59,0.978,5.128,0.535,5.645-0.982
		c1.339-3.96,14.205-3.25,20.055,1.104c7.642,5.693,3.855,20.998-6.498,26.265c-4.364,2.218-7.301,5.034-6.532,6.259
		c0.772,1.225-0.461,2.932-2.735,3.786c-6.433,2.432-1.733,6.822,7.301,6.822c7.052,0,7.676,0.535,4.705,4.057
		c-6.079,7.209-14.163,10.096-29.073,10.394c-29.371,0.589-34.811,1.214-33.168,3.83c1.838,2.927-6.101,2.291-11.305-0.903
		c-5.188-3.187-12.799,0.339-16.092,7.451c-2.614,5.645-3.778,6.096-9.323,3.611c-4.919-2.206-8.164-1.91-14.533,1.331
		C-224.501,845.714-225.125,844.896-216.825,834.011z M-16.658,811.506c-3.649-1.571-8.06-4.197-9.805-5.834
		c-1.741-1.636-6.519-2.533-10.614-1.993l-7.447,0.983l7.624-3.537l7.624-3.54l-7.991-1.57l-7.991-1.573l6.337-12.314
		c3.488-6.776,6.34-13.88,6.34-15.788c0-1.91,1.267-3.478,2.813-3.478c1.64,0,2.287,3.286,1.554,7.86
		c-1.654,10.32,6.726,15.773,14.12,9.192c3.951-3.517,4.257-5.354,1.77-10.63c-1.654-3.508-3.901-6.388-4.998-6.399
		c-4.287-0.044-1.854-12.756,2.655-13.862c22.973-5.643,35.682,5.819,21.231,19.145c-5.549,5.117-5.649,5.739-1.428,8.802
		c4.019,2.914,4.102,3.918,0.726,8.656c-2.099,2.949-6.858,6.112-10.572,7.029c-5.67,1.396-6.321,2.465-4.055,6.632
		c1.485,2.729,1.812,7.237,0.722,10.019C-9.729,813.614-11.007,813.94-16.658,811.506z M452.821,807.251
		c-0.836-2.151-4.996-4.149-9.255-4.431c-4.258-0.285-16.551-1.043-27.319-1.688c-10.768-0.647-20.319-2.309-21.23-3.691
		c-4.741-7.23-51.029-8.775-58.686-1.958c-5.948,5.295-10.678,3.326-8.815-3.674c0.871-3.268-0.563-5.989-4.129-7.869
		c-5.878-3.096-5.023-10.627,1.207-10.627c5.603,0,7.295-11.567,3.792-25.937c-3.633-14.89-2.336-18.581,5.972-17.005
		c7.254,1.375,15.779-1.045,13.948-3.958c-1.256-2.004,10.916-6.653,15.106-5.774c1.044,0.218,1.262-1.233,0.484-3.224
		c-0.774-1.992-0.136-4.397,1.422-5.345s2.835-3.417,2.835-5.485c0-4.127,9.209-14.205,12.985-14.205
		c3.493,0,5.751-7.346,2.574-8.389c-1.773-0.584-1.582-3.339,0.551-7.952c2.586-5.583,4.553-6.742,9.401-5.545
		c4.573,1.13,7.829-0.379,12.784-5.921c3.656-4.095,6.686-6.008,6.729-4.257c0.046,1.75,1.88,2.506,4.065,1.679
		c2.191-0.827,3.98-0.134,3.98,1.541c0,1.674,1.086,2.382,2.414,1.576c4.056-2.463,10.614,1.358,9.077,5.293
		c-1.712,4.394,2.152,4.898,6.293,0.824c4.364-4.293,17.228,2.656,21.626,11.681c2.766,5.674,2.933,8.957,0.704,13.771
		c-2.32,5.011,9.748,25.659,12.302,27.533c2.555,1.875,4.643,5.172,4.643,7.324s1.79,4.03,3.983,4.174
		c9.285,0.604,10.85,1.183,9.398,3.484c-0.836,1.337-0.313,3.167,1.173,4.069c4.538,2.756,3.026,6.518-3.859,9.604
		c-4.898,2.197-7.495,2.172-10.264-0.088c-4.548-3.714-11.345,2.776-8.183,7.817c1.1,1.746,2.835,7.688,3.859,13.205
		c1.679,9.013,1.251,10.184-4.225,11.532c-8.349,2.063-13.82,8.667-14.917,18.002C454.693,808.121,453.746,809.644,452.821,807.251z
		 M-300.936,802.556c-0.17-1.011-0.17-2.713,0-3.794c0.174-1.076-0.951-1.954-2.496-1.954s-2.043-1.222-1.105-2.716
		c1.11-1.766-0.924-2.15-5.815-1.1l-7.52,1.616l6.198-4.953c3.511-2.808,5.812-7.08,5.309-9.855c-0.68-3.74,1.621-5.657,9.725-8.104
		c9.246-2.791,9.674-3.23,3.315-3.405c-8.704-0.239-9.803-6.448-1.991-11.249c7.679-4.719,6.538-7.218-3.315-7.268
		c-4.744-0.021-10.378-1.13-12.523-2.463c-3.279-2.04-2.96-3.22,1.993-7.446c7.324-6.248,7.562-10.937,0.556-10.937
		c-4.668,0-4.919-0.649-2.015-5.221c3.706-5.837,11.498-6.966,13.549-1.959c1.058,2.578,1.383,2.569,1.548-0.049
		c0.144-2.264,2.442-2.76,7.279-1.567c5.806,1.434,6.778,0.989,5.425-2.478c-3.219-8.251,4.136-7.531,11.756,1.15l7.739,8.817
		l5.178-6.526c2.848-3.59,5.204-5.107,5.234-3.368c0.033,1.74,2.602,5.493,5.71,8.341c6.285,5.762,10.379,30.122,7.061,42.018
		c-3.865,13.836-5.24,15.904-8.718,13.064c-2.436-1.987-4.055-2.029-5.242-0.138c-0.946,1.506-3.774,2.737-6.281,2.737
		c-2.509,0-6.694,2.445-9.298,5.439c-2.603,2.991-6.375,4.819-8.38,4.061c-2.005-0.757-4.061-0.15-4.569,1.347
		C-283.737,797.885-300.488,805.16-300.936,802.556z M321.457,722.597c-1.323-2.928-4.921-6.545-7.991-8.036
		c-4.474-2.167-5.139-3.917-3.328-8.729c2.922-7.769-2.585-13.454-13.04-13.454c-9.816,0-15.471-6.288-17.703-19.705
		c-1.465-8.823-0.812-11.403,3.981-15.665c4.84-4.302,8.958-4.982,26.355-4.358c11.349,0.408,23.399,1.269,26.791,1.911
		c3.392,0.642,7.141-0.28,8.331-2.047c1.622-2.408,2.853-2.07,4.904,1.354c1.506,2.51,4.831,4.567,7.391,4.567
		c7.297,0,22.592,16.952,20.93,23.201c-0.77,2.895-0.03,5.814,1.64,6.488c1.668,0.675,0.945,1.317-1.608,1.431
		c-2.556,0.114-4.646,1.969-4.646,4.123c0,2.152-1.79,3.916-3.98,3.916c-2.391,0-3.984,2.411-3.984,6.035
		c0,6.923-8.919,17.462-14.781,17.462c-2.179,0-4.599,1.634-5.374,3.627C343.011,730.698,324.356,729.035,321.457,722.597z
		 M-243.858,723.622c-3.079-1.147-6.453-4.242-7.495-6.878c-1.758-4.442-2.257-4.347-7.003,1.378l-5.108,6.162l-4.977-6.04
		c-4.953-6.021-4.933-6.08,4.89-15.646c12.612-12.286,21.006-15.133,25.756-8.734c1.938,2.604,3.52,6.861,3.52,9.458
		c0,2.594,1.197,4.723,2.655,4.723c4.247,0,3.067,7.622-1.991,12.859C-236.933,724.342-239.851,725.115-243.858,723.622z
		 M128.269,714.371c-2.204-5.65-1.167-6.671,3.745-3.683c2.842,1.725,3.095,3.134,0.943,5.253
		C130.799,718.061,129.541,717.64,128.269,714.371z M-282.563,702.13c1.719-2.038,2.552-4.27,1.853-4.959
		c-0.701-0.69,3.568-3.93,9.485-7.203c5.918-3.271,11.422-5.299,12.23-4.503c0.808,0.795-0.821,5.318-3.623,10.057
		c-3.913,6.613-7.168,8.805-14.082,9.459C-284.21,705.694-285.175,705.227-282.563,702.13z M46.371,698.41
		c-3.073-0.789-4.644-3.746-4.644-8.742c0-4.553-1.866-8.533-4.702-10.024c-3.948-2.079-4.662-5.921-4.461-23.966
		c0.213-19.099,0.917-22.028,6.321-26.337c3.346-2.665,8.457-4.846,11.36-4.846c2.9,0,8.794-3.705,13.093-8.235
		c10.401-10.953,15.388-7.129,10.337,7.925c-4.428,13.207-1.946,23.808,5.578,23.808c4.701,0,5.053,0.629,2.226,3.979
		c-1.847,2.189-3.972,3.375-4.725,2.633c-2.538-2.498-8.188,4.178-6.723,7.938c0.901,2.309-0.227,3.727-2.968,3.727
		c-2.432,0-3.682,1.175-2.781,2.611c0.902,1.435,0.08,2.614-1.831,2.618c-2.337,0.009-3.498,3.856-3.544,11.749
		c-0.039,6.459,1.153,11.758,2.651,11.782c1.501,0.021,0.933,1.18-1.257,2.568C56.134,700.251,54.013,700.375,46.371,698.41z
		 M98.228,691.18c-4.685-3.285-7.872-6.606-7.084-7.385c0.791-0.775,0.168-3.745-1.383-6.593c-2.494-4.589-1.409-5.835,9.459-10.861
		c9.867-4.562,12.716-4.999,14.505-2.223c3.126,4.857,2.858,13.236-0.364,11.276c-1.47-0.894-3.434,0.333-4.364,2.72
		c-0.936,2.392-0.227,5.239,1.568,6.333c2.395,1.454,2.066,2.437-1.239,3.683c-3.659,1.38-3.888,2.427-1.225,5.584
		C112.823,699.315,108.101,698.103,98.228,691.18z M269.611,695.256c1.997-1.243,4.669-3.867,5.928-5.834
		c1.695-2.63,2.312-2.025,2.342,2.303c0.03,4.376-1.483,5.864-5.931,5.834C267.551,697.529,266.935,696.923,269.611,695.256z
		 M157.062,692.203c-2.856-4.548,0.397-5.509,4.036-1.193c2.094,2.48,2.295,3.979,0.536,3.979
		C160.081,694.989,158.021,693.735,157.062,692.203z M125.435,682.113c-0.96-1.534-1.145-3.754-0.403-4.932
		c0.737-1.178-0.963-5.879-3.788-10.44c-2.819-4.565-3.955-8.3-2.513-8.3c3.277,0,3.458-16.361,0.216-19.715
		c-5.111-5.291-22.28-41.488-25.742-54.281c-4.354-16.088-4.976-28.622-1.125-22.626c4.273,6.646,9.389-1.486,9.104-14.469
		c-0.139-6.391,0.887-11.617,2.275-11.617c1.393,0,1.924-1.552,1.183-3.45c-0.74-1.897,0.808-4.773,3.44-6.392
		c5.986-3.678,8.894-20.068,5.546-31.277c-1.949-6.53-1.729-8.484,0.956-8.484c2.995,0,6.603-7.362,6.72-13.706
		c0.023-1.077-2.648-4.603-5.936-7.832c-4.555-4.485-6.095-9.271-6.494-20.235c-0.287-7.896-0.723-17.296-0.968-20.887
		c-0.244-3.589-0.254-10.052-0.023-14.358c0.23-4.307,0.336-9.594,0.226-11.748c-0.682-13.745,7.199-29.923,15.895-32.639
		c2.666-0.832,7.903-0.757,11.639,0.166c5.518,1.362,7.356,0.463,9.787-4.787c3.111-6.715-0.268-17.566-5.468-17.566
		c-1.332,0,1.07-7.342,5.336-16.317c5.854-12.313,7.938-20.873,8.486-34.884c0.712-18.138,0.911-18.62,8.692-20.885
		c6.079-1.771,7.968-3.864,7.999-8.846c0.02-3.589,3.116-11.226,6.879-16.97c13.219-20.175,13.777-18.949,9.194-25.831
		c-5.136-7.71-5.196-9.054-0.395-9.054c2.076,0,5.213-4.406,6.97-9.79c1.756-5.384,4.968-11.789,7.134-14.229
		c3.505-3.955,4.584-4.023,9.845-0.633c5.479,3.534,6.128,3.329,8.995-2.863c1.701-3.667,3.087-10.726,3.087-15.684
		c0-4.958,1.196-9.015,2.655-9.015s2.655,1.175,2.655,2.611c0,1.435,2.445,2.61,5.438,2.61c2.992,0,9.175,1.899,13.742,4.222
		c7.8,3.968,8.514,3.931,11.903-0.623c2.182-2.936,2.544-5.191,0.923-5.724c-1.561-0.512-0.894-3.56,1.613-7.316
		c3.415-5.132,3.682-7.742,1.314-12.859c-2.374-5.121-2.237-6.419,0.667-6.419c2,0,4.297,1.684,5.098,3.745
		c0.804,2.06,10.078,9.697,20.61,16.973c25.34,17.504,32.624,28.1,31.872,46.347c-0.313,7.627,0.574,13.868,1.973,13.868
		c1.398,0,1.953,2.212,1.233,4.916c-0.717,2.704,0.496,5.371,2.693,9.557c3.148,5.991,3.444,10.181,1.393,19.657
		c-1.75,8.07-1.706,15.35,0.131,22.063c1.509,5.51,2.78,11.096,2.82,12.413c0.116,3.632-17.648,2.859-22.34-0.974
		c-3.009-2.456-4.123-2.533-4.123-0.281c0,1.697-1.193,2.358-2.652,1.471c-1.543-0.938-2.655,1.641-2.655,6.152
		c0,5.211-2.568,10.15-7.806,15.011c-4.292,3.986-7.176,8.249-6.404,9.474c0.769,1.225-0.757,5.407-3.395,9.292
		c-5.458,8.048-5.153,13.46,1.02,18.141c3.864,2.929,3.664,3.89-2.075,9.896c-3.494,3.66-7.591,10.379-9.105,14.934
		c-1.945,5.843-6.659,10.506-16.022,15.84c-12.118,6.902-35.827,31.965-35.827,37.872c0,1.355-3.064,4.439-6.813,6.854
		c-5.093,3.282-6.097,5.237-3.987,7.74c2.04,2.418,1.314,7.627-2.611,18.753c-4.205,11.902-5.053,18.781-3.736,30.261
		c1.548,13.499,2.372,15.001,8.963,16.426c7.617,1.646,26.759,23.526,26.759,30.589c0,2.126-3.27,5.332-7.271,7.126
		c-6.793,3.044-6.958,3.484-2.496,6.694c5.147,3.702,1.535,8.307-3.914,4.992c-1.701-1.032-2.351-0.728-1.462,0.686
		c0.882,1.401-0.651,4.446-3.404,6.766c-3.583,3.017-5.371,3.337-6.291,1.118c-0.792-1.916-1.353-1.604-1.468,0.817
		c-0.099,2.154-3.831,6.868-8.296,10.476c-7.163,5.795-8.261,8.533-9.41,23.497c-0.714,9.314-2.028,19.286-2.922,22.157
		c-0.891,2.874-1.855,9.033-2.142,13.694c-0.289,4.658-2.728,13.276-5.42,19.15c-4.863,10.608-4.972,10.668-16.333,8.992
		c-9.479-1.396-11.437-0.96-11.437,2.542c0,2.327-1.059,3.587-2.353,2.804c-3.656-2.223-8.4,4.984-7.63,11.589
		c0.499,4.279-0.792,6.109-4.611,6.536c-2.922,0.33-7.277,1.414-9.686,2.417C129.157,684.082,126.4,683.646,125.435,682.113z
		 M371.244,665.055c-4.53-5.075-10.231-9.228-12.668-9.228c-2.436,0-5.925-2.011-7.756-4.47c-2.481-3.34-4.233-3.755-6.926-1.64
		c-1.984,1.557-5.397,2.546-7.582,2.196c-2.193-0.344-12.808-1.363-23.596-2.259c-17.003-1.415-20.799-0.911-28.526,3.79
		l-8.917,5.418l0.015-7.392c0.009-4.066,1.802-10.758,3.981-14.871c2.182-4.116,3.986-9.99,4.004-13.053
		c0.055-7.584,2.539-10.401,11.902-13.511c7.054-2.344,8.644-1.849,13.934,4.327c3.285,3.833,5.974,8.228,5.974,9.766
		c0,1.536,2.385,4.055,5.305,5.59c10.687,5.625,22.966-7.172,19.928-20.771c-1.434-6.429-0.544-7.959,6.688-11.508
		c9.427-4.626,14.821-2.52,26.031,10.165c4.485,5.076,6.935,6.052,10.399,4.145c3.183-1.753,6.755-1.201,12.021,1.858
		c6.648,3.866,7.331,5.468,6.079,14.269c-0.787,5.544-0.358,9.276,0.969,8.466c1.309-0.794,3.761,2.677,5.452,7.711
		c2.745,8.184,2.417,9.983-3.104,16.936c-4.141,5.217-7.893,7.396-11.386,6.629c-2.864-0.632-7.185,0.609-9.597,2.755
		C379.911,673.896,378.666,673.37,371.244,665.055z M222.189,616.542c0-7.506,10.414-20.765,16.313-20.765
		c3.894,0,2.472,5.308-1.86,6.943c-2.42,0.91-3.807,3.975-3.354,7.386c0.781,5.854-4.422,14.389-8.769,14.389
		C223.24,624.498,222.189,620.917,222.189,616.542z M374.395,605.656c-7.1-8.646-19.127-15.643-22.902-13.32
		c-7.092,4.36-10.438,3.144-9.178-3.335c1.312-6.756-2.716-11.513-5.713-6.745c-2.17,3.454-5.864,1.041-10.271-6.708
		c-2.684-4.72-2.684-5.882,0-5.913c2.066-0.025,2.327-0.772,0.688-1.958c-1.459-1.055-3.044-4.647-3.517-7.985
		c-0.618-4.354,0.69-6.468,4.646-7.484c3.029-0.779,5.507-2.266,5.507-3.304c0-3.309,13.696-8.166,18.658-6.616
		c2.632,0.82,5.449,0.428,6.265-0.872c1.781-2.833,10.768-2.018,21.028,1.906c4.111,1.571,12.7,2.857,19.087,2.857h11.618
		l-6.45,11.096c-6.816,11.725-8.456,27.45-3.761,36.076c2.145,3.942,1.604,6.268-2.452,10.55c-2.861,3.02-6.537,4.678-8.174,3.684
		c-1.637-0.993-4.591-0.487-6.566,1.126C380.134,610.969,378.185,610.271,374.395,605.656z M3.012,590.934
		c0.772-1.23-3.337-5.984-9.133-10.566c-6.583-5.204-10.521-10.488-10.497-14.082c0.033-4.671,0.527-5.014,2.616-1.835
		c2.018,3.075,2.578,3.146,2.613,0.333c0.032-3.004,0.792-3.019,4.685-0.087c2.555,1.924,3.711,2.422,2.568,1.108
		c-1.141-1.314,0.651-3.928,3.981-5.811c5.828-3.29,5.754-3.361-1.905-1.882c-6.082,1.175-7.023,0.881-3.982-1.243
		c2.192-1.53,2.785-2.838,1.329-2.906c-1.459-0.067-0.338-1.848,2.497-3.956c3.714-2.764,4.085-3.856,1.329-3.916
		c-2.886-0.062-2.649-0.96,0.959-3.652c3.388-2.524,3.807-3.89,1.438-4.666c-4.367-1.434-18.612,5.572-16.896,8.311
		c0.728,1.16-1.051,2.721-3.954,3.466c-6.278,1.615-6.909-1.819-1.206-6.535c2.24-1.851,5.681-4.779,7.644-6.505
		c1.965-1.727,4.142-2.58,4.84-1.896c0.695,0.684,2.928-0.766,4.96-3.224c3.218-3.89,3.15-4.268-0.526-2.914
		c-2.32,0.854-5.905,0.503-7.959-0.777c-2.059-1.28-2.441-2.348-0.849-2.37c1.592-0.021,4.422-3.271,6.295-7.218
		c3.188-6.733,2.706-9.509-0.797-6.271c-6.082,5.622-6.433,5.662-7.699,0.902c-0.727-2.743-0.221-6.925,1.127-9.295
		c2.622-4.609,0.534-10.42-2.973-8.286c-1.164,0.707-4.174-0.948-6.684-3.68c-4.419-4.802-4.145-5.025,8.268-6.736
		c20.454-2.82,7.746-5.065-1.091-4.925c-15.865,0.249-17.925-2.122-5.309-6.104c7.932-2.503,8.092-2.757,1.99-3.172
		c-6.128-0.415-6.231-0.621-1.329-2.693c2.921-1.234,3.745-2.326,1.833-2.427c-1.912-0.102-2.735-1.358-1.833-2.796
		c0.901-1.435-0.367-2.609-2.82-2.609c-3.665,0-3.872-0.699-1.159-3.916c4.402-5.218,9.741-4.951,13.058,0.652
		c1.487,2.512,2.741,3.167,2.786,1.454s2.273-2.698,4.952-2.191s6.561-0.129,8.626-1.416c4.399-2.739,3.319-2.954-23.773-4.784
		c-3.001-0.201-3.036-0.96-0.196-4.328c2.321-2.752,5.676-3.544,10.276-2.427c5.407,1.312,6.16,0.985,3.609-1.568
		c-2.536-2.537-2.254-3.955,1.326-6.629c7.247-5.417,11.18-4.157,11.27,3.611c0.08,6.816,0.28,6.928,3.912,2.204
		c3.411-4.433,3.235-5.479-1.625-9.626c-2.999-2.558-7.148-4.012-9.22-3.231s-3.766-0.043-3.766-1.833
		c0-2.388,4.069-2.876,15.26-1.833c8.39,0.781,12.958,0.564,10.147-0.483c-6.865-2.559-0.294-5.153,10.182-4.021
		c5.587,0.603,6.765,0.054,4.551-2.125c-4.378-4.307-3.651-8.297,0.84-4.627c3.141,2.564,3.756,2.149,3.417-2.291
		c-0.226-2.98-2.25-5.512-4.492-5.625c-2.243-0.115-0.551-1.466,3.762-3.005c9.475-3.384,20.188-12.453,14.708-12.453
		c-2.418,0-1.919-1.253,1.473-3.693c5.577-4.013,9.76-0.908,7.293,5.415c-0.907,2.32,0.74,3.487,4.889,3.46
		c5.013-0.031,5.464-0.542,2.275-2.57c-3.022-1.921-1.902-2.541,4.644-2.57c6.742-0.031,8.625-1.143,8.625-5.085
		c0-2.775,2.26-5.751,5.021-6.613c3.302-1.031,4.892-3.774,4.644-8.008c-0.464-7.87-4.419-8.182-12.689-1.001
		c-4.534,3.937-4.982,5.042-1.62,3.998c7.173-2.227,5.488,2.399-2.116,5.808c-9.503,4.257-13.202,3.9-9.163-0.887
		c2.736-3.243,2.447-3.924-1.666-3.957c-3.987-0.033-4.219-0.506-1.184-2.396c2.079-1.297,4.193-5.004,4.698-8.241
		c1.145-7.397,5.621-12.82,10.575-12.82c2.096,0,3.074-1.175,2.175-2.61c-0.902-1.437-0.434-2.61,1.036-2.61
		c1.473,0,3.634,1.64,4.801,3.646c1.816,3.123,2.615,3.123,5.542,0c1.884-2.005,2.478-3.729,1.329-3.83
		c-1.152-0.101,0.291-1.193,3.212-2.428c4.877-2.063,4.773-2.266-1.329-2.514l-6.635-0.271l6.265-5.136
		c3.446-2.824,5.304-5.135,4.129-5.135c-1.175,0,1.815-2.868,6.645-6.373c4.83-3.507,10.652-9.086,12.938-12.401
		c4.071-5.904,4.051-5.936-1.138-1.494c-4.083,3.497-6.012,3.825-8.443,1.435c-5.507-5.417-3.822-10.449,2.804-8.379
		c5.288,1.651,5.545,1.38,2.329-2.432c-2.939-3.489-3.005-5.746-0.345-12.062c2.889-6.867,3.93-7.43,8.946-4.843
		c5.404,2.786,5.465,2.691,1.279-2.022c-3.917-4.409-3.959-5.343-0.383-8.573c3.082-2.786,4.473-2.891,6.005-0.454
		c1.434,2.281,4.142,1.273,9.671-3.599l7.681-6.768l-6.635,0.448c-3.65,0.247-9.407,0.267-12.796,0.043
		c-5.091-0.335-5.552-0.997-2.653-3.815c1.928-1.875,5.861-4.287,8.74-5.362c4.39-1.639,4.606-2.344,1.33-4.383
		c-3.187-1.981-2.926-2.471,1.4-2.653c5.306-0.223,5.306-0.223,0-2.468c-5.307-2.244-5.307-2.244,0-2.468
		c4.172-0.175,4.503-0.723,1.561-2.556c-3.168-1.973-3.065-3.006,0.66-6.674c2.43-2.388,4.448-3.374,4.493-2.196
		c0.043,1.179,1.287,0.106,2.764-2.386c2.857-4.824,14.555-5.515,20.377-1.203c2.312,1.713,3.313,4.162,3.313,1.242
		c0-3.878-3.636-5.458-17.22-7.477c-5.031-0.748-4.978-1.08,1.161-7.119c4.048-3.981,6.829-5.182,7.489-3.233
		c0.577,1.704,2.642,3.101,4.589,3.101c1.948,0,3.938,1.137,4.424,2.526c0.487,1.389,2.262-0.367,3.946-3.903
		c2.867-6.02,2.655-6.327-3.315-4.854c-4.825,1.192-6.378,0.516-6.378-2.778c0-2.395,0.952-3.775,2.117-3.066
		c1.164,0.708,3.653,0.354,5.531-0.787c2.665-1.622,2.511-2.416-0.705-3.629c-2.266-0.854-4.826-0.431-5.688,0.941
		c-2.244,3.572-9.864,3.096-8.634-0.539c1.203-3.541,7.916-5.433,19.879-5.601c8.538-0.119,13.626-5.358,8.328-8.577
		c-1.876-1.141-1.624-2.443,0.757-3.891c2.868-1.741,2.916-2.827,0.26-5.443c-2.66-2.615-2.127-3.921,2.677-6.542
		c4.834-2.641,5.097-3.294,1.352-3.37c-2.556-0.051-4.646-1.244-4.646-2.65c0-3.206,19.383-13.093,25.77-13.146
		c4.039-0.034,4.155-0.419,0.772-2.57c-2.191-1.392-2.789-2.567-1.329-2.61c1.457-0.042,0.94-1.146-1.155-2.451
		c-3.16-1.966-3.215-3.077-0.339-6.486c1.908-2.263,5.112-4.115,7.126-4.115c2.31,0,3.656-2.943,3.656-7.985
		c0-4.417,1.135-7.297,2.539-6.443c1.393,0.848,1.88,3.562,1.077,6.029c-0.949,2.913-0.659,3.406,0.821,1.409
		c3.102-4.185,12.422-3.048,14.52,1.77c1.384,3.177,2.098,2.931,3.784-1.305c1.143-2.871,3.87-7.973,6.056-11.333
		c2.191-3.363,4.306-9.116,4.704-12.787c0.397-3.669,2.101-7.967,3.787-9.551c3.613-3.393,0.929,22.343-3.235,31.062
		c-2.455,5.137-2.429,5.139,1.631,0.155c2.269-2.787,4.126-6.605,4.126-8.484c0-4.137,1.289-4.233,8.801-0.663
		c5.264,2.501,5.368,2.414,1.152-0.941c-6.884-5.478-5.362-19.147,1.582-14.214c0.505,0.36,2.835-0.914,5.179-2.826
		c4.437-3.622,15.132-1.963,15.132,2.35c0,1.339,1.236,2.436,2.75,2.436c1.825,0,1.759-1.816-0.207-5.425
		c-1.624-2.983-2.317-7.059-1.534-9.054c0.775-1.995,0.273-4.322-1.123-5.171c-3.119-1.894,0.252-1.236,2.443-1.236
		c1.639,0,19.888,6.74,17.296,10.982c-1.66,2.717-1.268,2.744,2.008,0.137c2.24-1.783,4.857-2.468,5.818-1.523
		c2.434,2.396,2.176-0.308-0.758-7.897c-1.926-4.981-1.578-6.822,1.495-7.984c2.197-0.83,3.363-2.518,2.588-3.752
		c-0.776-1.235,0.215-4.429,2.196-7.1c3.195-4.3,4.141-4.42,8.258-1.059c4.225,3.447,4.489,3.29,2.881-1.688
		c-1.126-3.496-0.302-6.683,2.272-8.785c2.223-1.813,4.039-6.483,4.039-10.375c0-8.524,7.029-9.719,9.645-1.639
		c1.541,4.771,1.95,4.891,3.354,0.965c1.125-3.151,2.745-3.776,5.472-2.117c3.357,2.04,3.293,2.992-0.476,7.088
		c-3.958,4.303-8.554,13.726-9.938,20.387c-0.299,1.436-1.654,3.928-3.012,5.539c-1.416,1.682-1.518,5.456-0.232,8.873
		c2.185,5.809,2.356,5.742,7.57-2.926c2.934-4.881,8.746-15.7,12.918-24.044c4.17-8.345,8.545-15.757,9.721-16.472
		c3.397-2.064,2.478,8.073-1.048,11.54c-2.399,2.363-2.417,3.134-0.066,3.134c2.043,0,2.573,2.673,1.546,7.731
		c-1.512,7.436-1.322,7.615,4.931,4.711c4.643-2.154,6.502-5.13,6.502-10.388c0-4.242,2.162-8.934,5.09-11.052
		c4.75-3.44,4.782-3.8,0.444-5.454c-2.556-0.975-4.643-2.527-4.64-3.45c0.008-2.625,16.82-3.102,20.901-0.594
		c4.801,2.952,1.446,8.053-5.297,8.053c-3.012,0-4.567,1.178-3.595,2.725c0.939,1.5,0.116,4.628-1.834,6.955
		c-3.184,3.797-2.937,3.909,2.426,1.1c6.624-3.474,7.295-2.425,3.225,5.057c-1.513,2.778-1.812,5.032-0.663,5.01
		c4.611-0.089,8.11-4.357,11.195-13.667c3.177-9.594,10.794-13.68,10.794-5.792c0,2.199,2.089,4.757,4.643,5.685
		c2.557,0.927,5.521,2.946,6.594,4.487c1.325,1.899,1.96,1.778,1.992-0.381c0.023-1.772,1.828-2.505,4.088-1.653
		c3.331,1.258,3.449,2.255,0.663,5.629c-2.899,3.515-2.665,3.835,1.658,2.236c3.45-1.274,6.68-0.136,10.22,3.6
		c2.844,3.004,4.753,5.723,4.242,6.039c-0.511,0.317-5.896,3.85-11.966,7.85c-10.769,7.096-11.247,7.169-19.546,2.945
		c-12.037-6.124-17.313-0.719-5.659,5.792c4.612,2.575,7.842,6.091,7.188,7.813c-0.714,1.87,0.349,2.546,2.646,1.679
		c4.312-1.628,5.318,3.126,1.195,5.633c-1.46,0.888-2.655,2.863-2.655,4.391c0,1.692,1.637,1.441,4.182-0.639
		c3.465-2.83,4.599-2.773,6.594,0.333c4.109,6.388,2.786,9.993-5.16,14.033c-4.34,2.207-8.422,6.921-9.435,10.887
		c-1.267,4.959-2.612,6.185-4.618,4.209c-2.008-1.976-1.17-5.087,2.886-10.688c7.813-10.799,5.228-18.814-10.177-31.499
		l-12.497-10.294l-7.782,5.09c-4.282,2.799-12.384,6.331-18.005,7.847c-5.618,1.517-9.592,3.376-8.821,4.132
		c0.769,0.754-0.983,6.833-3.891,13.504c-3.482,7.993-4.744,14.967-3.699,20.444c1.314,6.886,0.635,8.611-3.955,10.044
		c-3.05,0.953-6.639,4.567-7.979,8.035c-2.937,7.599-4.312,7.716-14.326,1.224c-7.695-4.989-7.86-4.989-15.056,0.052
		c-9.994,6.998-17.7,3.148-27.284-13.622c-6.619-11.583-8.27-12.917-14.172-11.46c-3.673,0.906-8.409,3.353-10.527,5.436
		s-6.156,3.787-8.969,3.787c-5.969,0-6.056,0.34-2.191,8.685c2.215,4.784,2.081,7.826-0.542,12.524
		c-1.909,3.413-3.151,8.26-2.762,10.772c0.395,2.512,0.084,4.569-0.694,4.569c-1.561,0-18.851-7.149-26.239-10.85
		c-6.974-3.495-9.84-0.495-9.882,10.352c-0.057,13.402-3.596,18.389-10.189,14.369c-4.241-2.583-5.963-2.149-10.391,2.61
		c-2.92,3.141-6.17,8.647-7.222,12.236c-1.054,3.589-4.321,8.403-7.268,10.697c-5.127,3.993-5.16,4.457-0.798,11.007
		c4.433,6.654,4.331,4.25-3.815,18.259c-4.605,7.916-9.541,15.104-10.971,15.972c-1.429,0.869-1.825,3.977-0.879,6.908
		c1.908,5.916-2.335,9.793-10.792,9.857c-4.791,0.036-5.37,2.003-5.938,20.08c-0.498,15.785-2.267,23.475-8.33,36.22
		c-7.499,15.766-7.569,16.289-2.685,20.401c8.599,7.244,4.676,19.231-5.274,16.123c-14.997-4.681-30.542,13.847-29.486,35.142
		c0.106,2.154,0.004,7.439-0.225,11.749c-0.232,4.308-0.224,10.769,0.022,14.358c0.245,3.591,0.68,13.208,0.969,21.37
		c0.406,11.605,1.825,16.04,6.496,20.336c3.285,3.021,5.972,6.526,5.972,7.787c0,5.289-3.478,10.554-6.97,10.554
		c-2.813,0-3.238,1.789-1.704,7.18c4.038,14.205,1.825,29.822-4.946,34.944c-3.456,2.615-5.24,4.779-3.968,4.812
		c1.271,0.031,0.924,1.707-0.778,3.724c-1.7,2.017-2.382,6.45-1.515,9.853c0.868,3.401,0.397,9.094-1.044,12.649
		c-1.643,4.052-2.686,4.864-2.79,2.18c-0.093-2.356-3.154-5.023-6.804-5.924c-6.716-1.659-7.534-3.888-7.032-19.16
		c0.152-4.668-0.743-8.484-1.989-8.484c-4.967,0-7.749,7.078-6.465,16.452c1.373,10.018-2.772,18.796-7.512,15.914
		c-1.371-0.833-4.663,0.941-7.308,3.944c-2.649,3.004-6.239,5.462-7.979,5.462c-1.739,0-2.405,1.206-1.478,2.683
		c1.744,2.775-14.378,19.333-16.65,17.099c-0.702-0.691-3.013,0.448-5.133,2.534C22.582,593.356,0.578,594.805,3.012,590.934z
		 M2.243,437.373c-3.127-5.292-3.884-3.598-1.323,2.967c0.908,2.332,2.214,3.691,2.897,3.021
		C4.501,442.688,3.793,439.993,2.243,437.373z M307.115,79.213c2.188-1.392,2.786-2.53,1.326-2.53c-1.457,0-4.442,1.139-6.633,2.53
		c-2.191,1.393-2.789,2.531-1.329,2.531C301.935,81.744,304.924,80.605,307.115,79.213z M296.496,582.694
		c0-3.22,2.384-5.679,6.485-6.69c8.986-2.22,13.861,1.132,7.646,5.256C300.995,587.647,296.496,588.104,296.496,582.694z
		 M303.502,565.251c-2.992-2.94-1.822-6.021,2.286-6.021c2.188,0,3.979,1.105,3.979,2.456
		C309.767,564.979,305.623,567.337,303.502,565.251z M313.31,523.803c-0.818-2.098-0.871-6.124-0.122-8.949
		c1.146-4.307,0.58-4.723-3.505-2.571c-7.564,3.983-14.003,3.215-12.181-1.455c0.92-2.352,0.212-3.859-1.706-3.633
		c-1.802,0.214-5.771-0.414-8.821-1.396c-4.503-1.448-5.412-3.593-4.802-11.379c0.412-5.277,0.96-10.182,1.222-10.898
		c0.258-0.719,0.374-2.056,0.255-2.97c-0.119-0.916,0.891-5.462,2.246-10.102c1.831-6.284,1.419-10.414-1.619-16.193
		c-2.243-4.267-3.412-9.464-2.6-11.548s0.099-8.864-1.584-15.063c-2.789-10.253-2.545-11.82,2.693-17.352
		c3.168-3.344,5.461-7.916,5.095-10.158c-0.444-2.723,1.785-4.351,6.711-4.908c4.054-0.459,7.077-2.221,6.714-3.916
		c-1.192-5.576,7.034-20.081,12.326-21.733c6.691-2.089,8.98-4.558,19.856-21.402c11.862-18.38,15.608-21.805,21.748-19.887
		c4.631,1.446,4.95,0.567,3.534-9.701c-2.718-19.717-3.778-22.656-8.721-24.201c-15.142-4.729-23.815-24.962-19.411-45.281
		c2.052-9.468,1.759-13.668-1.378-19.632c-2.231-4.244-3.289-7.371-2.397-10.864c0.938-3.667,0.424-6.245-1.242-6.245
		c-1.697,0-2.603-5.004-2.26-12.447c0.786-16.945-8.482-30.195-32.331-46.226c-19.743-13.271-29.457-24.405-18.231-20.901
		c4.707,1.47,5.603,1.008,4.344-2.23c-1.039-2.663,0.276-4.668,3.778-5.761c2.955-0.923,5.705-1.277,6.108-0.787
		c0.406,0.491,3.905,6.285,7.768,12.875c9.239,15.755,18.19,19.981,27.774,13.113c6.984-5.007,7.057-5.002,18.106,1.368
		l11.093,6.394l1.695-7.582c1.021-4.584,4.347-8.773,8.397-10.59c5.746-2.574,6.457-4.147,4.933-10.957
		c-2.292-10.262,7.955-36.356,14.282-36.375c2.382-0.007,9.062-2.826,14.83-6.263l10.495-6.25l11.14,8.978
		c13.942,11.24,16.4,19.438,8.923,29.771c-3.06,4.225-4.773,8.939-3.806,10.473c0.965,1.537-0.23,4.952-2.656,7.592
		c-2.91,3.163-3.45,5.383-1.581,6.52c1.999,1.215,2.008,3.245,0.025,6.886c-1.613,2.963-2.065,10.034-1.064,16.604
		c1.404,9.208,3.16,12.019,8.996,14.396c3.988,1.625,9.736,7.234,12.774,12.463l5.525,9.508l-8.995,17.571l-8.997,14.6l7.821,18.659
		c11.124,26.534,13.679,36.574,9.691,38.077c-6.525,2.465-7.32,36.908-0.954,41.486c2.751,1.979,3.729,5.161,2.733,8.898
		c-1.057,3.973,0.246,7.461,4.111,11.001c7.421,6.802,7.144,11.732-0.957,16.952l-6.61,4.26l5.414,7.475
		c2.975,4.111,8.882,9.495,13.13,11.962c12.024,6.987,14.787,16.436,8.378,28.661c-4.959,9.458-24.11,35.001-32.49,43.332
		c-2.071,2.061-10.785,11.533-19.359,21.052c-13.267,14.719-16.836,17.259-23.896,16.998c-4.567-0.169-12.117,1.636-16.784,4.008
		c-4.667,2.372-10.973,4.314-14.017,4.314s-8.417,1.858-11.943,4.131c-3.525,2.273-9.157,4.521-12.512,4.996
		c-3.357,0.476-10.048,2.076-14.868,3.559C316.519,527.085,314.504,526.866,313.31,523.803z M301.806,520.565
		c0-1.402,1.889-3.262,4.202-4.136c2.585-0.977,3.801-0.393,3.151,1.516C307.837,521.848,301.806,523.996,301.806,520.565z
		 M251.383,516.152c0-2.154,1.753-3.917,3.897-3.917c2.374,0,3.302,1.531,2.371,3.917c-0.841,2.153-2.594,3.916-3.897,3.916
		C252.45,520.068,251.383,518.306,251.383,516.152z M147.883,171.747c0-3.995,10.898-9.423,16.679-8.307
		c1.774,0.341,3.062-1.434,2.856-3.946c-0.203-2.512,0.611-4.568,1.806-4.568c1.199,0,2.56-2.551,3.022-5.669
		c1.052-7.031,7.454-9.596,7.567-3.034c0.083,4.512,0.284,4.526,3.579,0.258c3.649-4.728,6.955-3.61,6.955,2.352
		c0,3.454-4.888,9.01-14.544,16.535c-4.619,3.598-4.87,3.505-3.089-1.159c1.888-4.95,1.804-4.956-3.486-0.248
		c-2.983,2.655-5.42,3.833-5.42,2.617c0-1.215-1.493-0.386-3.317,1.843C155.568,174.429,147.883,176.457,147.883,171.747z
		 M159.804,153.283c4.257-6.393,4.229-6.493-1.12-3.679c-4.051,2.133-5.496,2.118-5.496-0.054c0-1.621,2.388-3.561,5.307-4.312
		s5.426-2.696,5.573-4.325c0.146-1.628,1.149-0.022,2.231,3.567c1.084,3.59,0.975,7.81-0.241,9.377
		c-1.213,1.567-1.674,3.377-1.02,4.021c0.653,0.644-1.24,1.351-4.21,1.57C155.659,159.836,155.618,159.57,159.804,153.283z
		 M211.236,110.722c3.882-2.044,5.476-1.783,6.594,1.09c0.812,2.081,0.316,4.491-1.105,5.354c-1.419,0.863-2.005,2.491-1.294,3.619
		c0.708,1.126-1.718,3.395-5.388,5.041C201.923,129.463,208.421,112.203,211.236,110.722z M239.759,109.557
		c-2.057-8.066,0.392-14.679,5.435-14.679c2.817,0,3.633,2.57,3.032,9.587C247.26,115.714,242.118,118.805,239.759,109.557z
		 M224.193,101.406c0.703-3.591,2.198-6.528,3.329-6.528c3.641,0,4.967,7.098,1.892,10.124
		C224.656,109.684,222.829,108.426,224.193,101.406z M235.457,88.351c-2.702-3.208-2.522-3.917,1.007-3.917
		c2.368,0,4.32-1.467,4.347-3.262c0.029-2.31,0.731-2.188,2.408,0.416c2.52,3.92,0.998,10.679-2.408,10.679
		C239.683,92.267,237.278,90.506,235.457,88.351z M326.776,49.514c-2.217-5.686-0.665-7.212,4.277-4.208
		c3.035,1.845,3.183,3.049,0.673,5.516C329.219,53.29,328.14,53.005,326.776,49.514z"/>
</g>
</svg>
